<?xml version="1.0" encoding="UTF-8" standalone="no"?>
<!-- Created with Inkscape (http://www.inkscape.org/) -->
<svg xmlns:dc="http://purl.org/dc/elements/1.1/" xmlns:cc="http://web.resource.org/cc/" xmlns:rdf="http://www.w3.org/1999/02/22-rdf-syntax-ns#" xmlns:svg="http://www.w3.org/2000/svg" xmlns="http://www.w3.org/2000/svg" xmlns:xlink="http://www.w3.org/1999/xlink" xmlns:sodipodi="http://sodipodi.sourceforge.net/DTD/sodipodi-0.dtd" xmlns:inkscape="http://www.inkscape.org/namespaces/inkscape" width="1680" height="1050" id="svg2" sodipodi:version="0.32" inkscape:version="0.45.1" version="1.0" sodipodi:docname="branchillu.svg" sodipodi:docbase="/home/pxl/Imatges/vectorials" inkscape:output_extension="org.inkscape.output.svg.inkscape" inkscape:export-filename="/home/pxl/Imatges/vectorials/branchillu_transp.png" inkscape:export-xdpi="90" inkscape:export-ydpi="90">
  <defs id="defs4">
    <linearGradient inkscape:collect="always" id="linearGradient5814">
      <stop style="stop-color: rgb(255, 255, 255); stop-opacity: 1;" offset="0" id="stop5816"/>
      <stop style="stop-color: rgb(255, 255, 255); stop-opacity: 0;" offset="1" id="stop5818"/>
    </linearGradient>
    <linearGradient id="linearGradient4884">
      <stop style="stop-color: rgb(255, 233, 14); stop-opacity: 1;" offset="0" id="stop4886"/>
      <stop style="stop-color: rgb(255, 255, 255); stop-opacity: 0;" offset="1" id="stop4888"/>
    </linearGradient>
    <linearGradient id="linearGradient4539">
      <stop style="stop-color: rgb(255, 255, 255); stop-opacity: 1;" offset="0" id="stop4541"/>
      <stop style="stop-color: rgb(255, 255, 255); stop-opacity: 0;" offset="1" id="stop4543"/>
    </linearGradient>
    <linearGradient id="linearGradient4531">
      <stop style="stop-color: rgb(0, 0, 0); stop-opacity: 1;" offset="0" id="stop4533"/>
      <stop style="stop-color: rgb(0, 0, 0); stop-opacity: 0;" offset="1" id="stop4535"/>
    </linearGradient>
    <linearGradient id="linearGradient4519">
      <stop style="stop-color: rgb(227, 206, 0); stop-opacity: 0.403922;" offset="0" id="stop4521"/>
      <stop style="stop-color: rgb(140, 31, 0); stop-opacity: 0;" offset="1" id="stop4523"/>
    </linearGradient>
    <linearGradient id="linearGradient3481">
      <stop style="stop-color: rgb(173, 39, 0); stop-opacity: 1;" offset="0" id="stop3483"/>
      <stop style="stop-color: rgb(38, 3, 0); stop-opacity: 1;" offset="1" id="stop3485"/>
    </linearGradient>
    <linearGradient inkscape:collect="always" id="linearGradient4120">
      <stop style="stop-color: rgb(145, 124, 111); stop-opacity: 1;" offset="0" id="stop4122"/>
      <stop style="stop-color: rgb(145, 124, 111); stop-opacity: 0;" offset="1" id="stop4124"/>
    </linearGradient>
    <linearGradient id="linearGradient4110">
      <stop style="stop-color: rgb(72, 62, 55); stop-opacity: 1;" offset="0" id="stop4112"/>
      <stop style="stop-color: rgb(146, 135, 128); stop-opacity: 1;" offset="1" id="stop4114"/>
    </linearGradient>
    <linearGradient inkscape:collect="always" xlink:href="#linearGradient4120" id="linearGradient4126" x1="511.42856" y1="712.66589" x2="508.57144" y2="24.094482" gradientUnits="userSpaceOnUse" gradientTransform="matrix(0.997297, 0, 0, 1, 2.84942, 0)"/>
    <linearGradient inkscape:collect="always" xlink:href="#linearGradient4120" id="linearGradient9963" gradientUnits="userSpaceOnUse" gradientTransform="matrix(0.997297, 0, 0, 1, 2.84942, 0)" x1="511.42856" y1="712.66589" x2="508.57144" y2="24.094482"/>
    <linearGradient inkscape:collect="always" xlink:href="#linearGradient3481" id="linearGradient3487" x1="503.16187" y1="13.257224" x2="503.16187" y2="755.953" gradientUnits="userSpaceOnUse" gradientTransform="matrix(1.63217, 0, 0, 1.348, 0, 3.32495)"/>
    <filter inkscape:collect="always" id="filter3809">
      <feGaussianBlur inkscape:collect="always" stdDeviation="11.998745" id="feGaussianBlur3811"/>
    </filter>
    <filter inkscape:collect="always" id="filter3873">
      <feGaussianBlur inkscape:collect="always" stdDeviation="6.5957102" id="feGaussianBlur3875"/>
    </filter>
    <filter inkscape:collect="always" x="-0.93389121" width="2.8677824" y="-0.93389121" height="2.8677824" id="filter4299">
      <feGaussianBlur inkscape:collect="always" stdDeviation="21.299254" id="feGaussianBlur4301"/>
    </filter>
    <filter inkscape:collect="always" x="-0.42202202" width="1.844044" y="-0.35409078" height="1.7081816" id="filter4487">
      <feGaussianBlur inkscape:collect="always" stdDeviation="2.7904513" id="feGaussianBlur4489"/>
    </filter>
    <linearGradient inkscape:collect="always" xlink:href="#linearGradient4519" id="linearGradient4517" x1="1637.2325" y1="584.20221" x2="1218.8796" y2="584.20221" gradientUnits="userSpaceOnUse" gradientTransform="matrix(1.00612, 0, 0, 5.05738, -10.2841, -2568.21)"/>
    <linearGradient inkscape:collect="always" xlink:href="#linearGradient4531" id="linearGradient4537" x1="591.84155" y1="576.18463" x2="591.84155" y2="498.17361" gradientUnits="userSpaceOnUse" gradientTransform="translate(0, 2)"/>
    <linearGradient inkscape:collect="always" xlink:href="#linearGradient4539" id="linearGradient4545" x1="485.78903" y1="618.94775" x2="485.78903" y2="651.49274" gradientUnits="userSpaceOnUse" gradientTransform="translate(0, -18)"/>
    <linearGradient inkscape:collect="always" xlink:href="#linearGradient4531" id="linearGradient4548" gradientUnits="userSpaceOnUse" gradientTransform="matrix(1.09581, 0, 0, 0.263355, -249.597, 432.453)" x1="591.84155" y1="576.18463" x2="591.84155" y2="498.17361"/>
    <radialGradient inkscape:collect="always" xlink:href="#linearGradient4519" id="radialGradient4554" cx="1679.7354" cy="575.00781" fx="1679.7354" fy="575.00781" r="222.36826" gradientTransform="matrix(0.680337, -0.931226, 1.8275, 1.33514, -509.042, 1462.68)" gradientUnits="userSpaceOnUse"/>
    <linearGradient inkscape:collect="always" xlink:href="#linearGradient4531" id="linearGradient4559" gradientUnits="userSpaceOnUse" gradientTransform="matrix(1, 0, 0, 0.23077, 11.9737, -980.555)" x1="591.84155" y1="576.18463" x2="591.84155" y2="498.17361"/>
    <filter inkscape:collect="always" id="filter4693">
      <feGaussianBlur inkscape:collect="always" stdDeviation="4.8665833" id="feGaussianBlur4695"/>
    </filter>
    <filter inkscape:collect="always" id="filter4932">
      <feGaussianBlur inkscape:collect="always" stdDeviation="1.4225383" id="feGaussianBlur4934"/>
    </filter>
    <linearGradient inkscape:collect="always" xlink:href="#linearGradient4539" id="linearGradient4945" gradientUnits="userSpaceOnUse" gradientTransform="translate(-853.552, -336.973)" x1="330.84375" y1="600.49738" x2="1754.8597" y2="600.49738"/>
    <filter inkscape:collect="always" id="filter4951">
      <feGaussianBlur inkscape:collect="always" stdDeviation="7.2044527" id="feGaussianBlur4953"/>
    </filter>
    <linearGradient inkscape:collect="always" xlink:href="#linearGradient4539" id="linearGradient4963" gradientUnits="userSpaceOnUse" gradientTransform="matrix(-0.893278, 0, 0, -0.456319, 2007.46, 895.329)" x1="330.84375" y1="600.49738" x2="1754.8597" y2="600.49738"/>
    <filter inkscape:collect="always" x="-0.37154812" width="1.7430962" y="-0.37154812" height="1.7430962" id="filter4992">
      <feGaussianBlur inkscape:collect="always" stdDeviation="146.70434" id="feGaussianBlur4994"/>
    </filter>
    <filter inkscape:collect="always" x="-0.053300048" width="1.1066001" y="-0.21414819" height="1.4282964" id="filter5181">
      <feGaussianBlur inkscape:collect="always" stdDeviation="6.2391008" id="feGaussianBlur5183"/>
    </filter>
    <linearGradient inkscape:collect="always" xlink:href="#linearGradient4539" id="linearGradient5203" gradientUnits="userSpaceOnUse" gradientTransform="matrix(-1.70513, 0, 0, 0.871043, 2501.97, 116.376)" x1="330.84375" y1="600.49738" x2="1754.8597" y2="600.49738"/>
    <filter inkscape:collect="always" id="filter5226">
      <feGaussianBlur inkscape:collect="always" stdDeviation="5.5846327" id="feGaussianBlur5228"/>
    </filter>
    <linearGradient inkscape:collect="always" xlink:href="#linearGradient4539" id="linearGradient5256" gradientUnits="userSpaceOnUse" gradientTransform="matrix(-1.32826, 0, -2.66727, -0.678526, 4024.7, 982.785)" x1="330.84375" y1="600.49738" x2="1754.8597" y2="600.49738"/>
    <radialGradient inkscape:collect="always" xlink:href="#linearGradient5814" id="radialGradient5820" cx="720.98621" cy="511.18469" fx="720.98621" fy="511.18469" r="257.43399" gradientTransform="matrix(1, 0, 0, 0.259136, 0, 378.718)" gradientUnits="userSpaceOnUse"/>
    <filter inkscape:collect="always" id="filter5866">
      <feGaussianBlur inkscape:collect="always" stdDeviation="2.3904489" id="feGaussianBlur5868"/>
    </filter>
    <linearGradient inkscape:collect="always" xlink:href="#linearGradient4539" id="linearGradient5873" gradientUnits="userSpaceOnUse" gradientTransform="matrix(-1.70513, 0, 0, 0.871043, 2501.97, 116.376)" x1="330.84375" y1="600.49738" x2="1754.8597" y2="600.49738"/>
  </defs>
  <sodipodi:namedview id="base" pagecolor="#ffffff" bordercolor="#666666" borderopacity="1.0" gridtolerance="10000" guidetolerance="10" objecttolerance="10" inkscape:pageopacity="0.0" inkscape:pageshadow="2" inkscape:zoom="0.41338587" inkscape:cx="1181.0513" inkscape:cy="626.94718" inkscape:document-units="px" inkscape:current-layer="layer3" width="1680px" height="1050px" inkscape:window-width="1680" inkscape:window-height="978" inkscape:window-x="0" inkscape:window-y="48" showguides="true" inkscape:guide-bbox="true"/>
  <metadata id="metadata7">
    <rdf:RDF>
      <cc:Work rdf:about="">
        <dc:format>image/svg+xml</dc:format>
        <dc:type rdf:resource="http://purl.org/dc/dcmitype/StillImage"/>
      </cc:Work>
    </rdf:RDF>
  </metadata>
  <g inkscape:groupmode="layer" id="layer2" inkscape:label="bg" sodipodi:insensitive="true" style="display: inline;">
    <rect style="opacity: 1; fill: url(&quot;#linearGradient3487&quot;) rgb(0, 0, 0); fill-opacity: 1; fill-rule: nonzero; stroke: none; stroke-width: 135.5; stroke-linecap: round; stroke-linejoin: round; stroke-miterlimit: 4; stroke-dasharray: none; stroke-opacity: 1;" id="rect3479" width="1680" height="1050" x="0" y="0"/>
  </g>
  <g inkscape:label="Layer 1" inkscape:groupmode="layer" id="layer1">
    <rect style="opacity: 1; fill: url(&quot;#radialGradient4554&quot;) rgb(0, 0, 0); fill-opacity: 1; fill-rule: nonzero; stroke: none; stroke-width: 135.5; stroke-linecap: round; stroke-linejoin: round; stroke-miterlimit: 4; stroke-dasharray: none; stroke-opacity: 1;" id="rect4509" width="512.90289" height="1217.1578" x="1171.6658" y="-72.591614"/>
    <path style="opacity: 0.0997071; fill: rgb(255, 255, 255); fill-opacity: 0.933054; fill-rule: evenodd; stroke: none; stroke-width: 1px; stroke-linecap: butt; stroke-linejoin: miter; stroke-opacity: 1; filter: url(&quot;#filter4693&quot;);" d="M 742.39287,459.34308 C 742.39287,459.34308 680.50655,500.31394 582.07174,486.34457 C 583.41216,483.28588 584.14977,479.91265 584.04049,476.34457 C 583.68921,464.88004 574.25054,454.55959 562.07174,455.31332 C 552.57003,455.90136 543.96182,464.02124 545.13424,474.34457 C 545.32434,476.01842 545.81216,477.58726 546.50924,479.06332 C 539.70117,477.21691 532.77917,475.16632 525.66549,472.71957 C 495.90428,462.48324 469.67748,446.10177 443.44674,429.06332 C 445.486,428.04217 446.6252,425.8144 446.25924,423.56332 C 442.76801,402.29481 433.78375,381.48473 416.50924,370.28207 C 399.63373,359.33817 375.52187,358.98987 345.04049,375.31332 C 340.41425,373.70239 335.67412,372.26218 330.85299,370.93832 C 341.53605,354.93632 345.96706,334.82903 340.35299,314.84457 C 333.01979,288.74075 308.8494,269.29135 281.97799,269.84457 C 277.01985,269.94665 271.94387,270.72997 266.91549,272.31332 C 242.50083,280.00103 225.31477,306.70916 234.82174,332.25082 C 238.15035,341.19353 244.86041,348.6782 253.22799,353.00082 C 261.59557,357.32344 271.91223,358.35821 281.38424,353.71957 C 287.10435,350.91831 291.81778,345.88523 294.29049,339.78207 C 296.7632,333.67891 296.57184,325.85138 291.44674,319.93832 C 288.61722,316.67377 285.15904,315.54146 281.22799,315.18832 C 279.26246,315.01175 277.09957,315.10742 274.85299,316.28207 C 273.16805,317.16306 271.64389,318.93317 270.85299,320.93832 C 270.37129,321.57354 269.98247,322.25034 269.69674,322.96957 C 269.12775,324.39605 269.22402,325.98947 269.94674,327.34457 C 270.66944,328.69966 271.94514,329.67865 273.44674,330.00082 L 274.47799,330.21957 C 275.07387,330.3461 275.68731,330.36725 276.29049,330.28207 C 276.06553,330.8498 275.64176,331.35707 274.85299,331.96957 C 273.42271,333.08022 270.95166,333.83163 269.35299,333.71957 C 265.64994,333.46001 262.92076,331.50466 260.94674,328.40707 C 258.97272,325.30948 258.07296,321.0931 258.69674,317.43832 C 260.65349,305.97352 273.34684,299.52521 284.54049,302.03207 C 299.93176,305.47902 308.30994,322.46591 304.44674,337.50082 C 300.33532,353.50175 284.33925,364.05738 267.88424,363.25082 C 266.16854,363.16672 264.56342,363.37279 263.00924,363.75082 C 205.56178,366.90107 134.52884,392.21744 38.97799,456.06332 C 38.88491,456.12552 38.78987,456.1573 38.69674,456.21957 C 37.86464,456.68668 0.35370992,477.62473 -29.11576,473.03207 C -50.505625,468.75504 -68.002689,474.4112 -79.89701,485.40707 C -91.791331,496.40294 -97.927027,512.39382 -97.86576,528.59457 C -97.804493,544.79532 -91.460502,561.39107 -78.08451,573.37582 C -64.708518,585.36057 -44.492673,592.44624 -17.64701,590.46957 C -17.55328,590.4721 -17.45949,590.4721 -17.36576,590.46957 C 23.4209,585.21883 46.7103,554.52249 47.29049,553.75082 C 47.29049,553.75082 47.35272,553.68864 47.35299,553.68832 C 47.35695,553.68303 47.50924,553.50082 47.50924,553.50082 C 47.81786,553.14084 60.13623,538.78447 81.72799,519.12582 L 81.69674,519.09457 C 82.84138,518.29577 83.98779,517.44003 85.04049,516.25082 C 85.18878,516.08332 85.35946,515.8847 85.54049,515.68832 C 85.56172,515.66529 85.58111,515.64952 85.60299,515.62582 C 87.69356,513.75932 89.85883,511.8786 92.10299,509.93832 C 104.22305,501.43593 120.52553,499.74539 133.57174,507.25082 C 148.46322,515.81781 155.41789,535.58904 146.22799,550.46957 C 139.52537,561.32264 124.53081,566.40819 113.85299,559.03207 C 110.42854,556.6665 107.75541,552.6809 106.82174,548.65707 C 105.88807,544.63324 106.47309,540.83602 109.19674,537.62582 C 110.4139,536.1912 112.96179,534.75586 115.04049,534.46957 C 116.52748,534.26477 117.46573,534.53783 118.29049,535.15707 C 117.57519,535.59154 116.97496,536.19177 116.54049,536.90707 L 115.94674,537.87582 C 115.1532,539.17402 114.97822,540.74073 115.44674,542.18832 C 115.91525,543.63591 116.98053,544.82002 118.38424,545.40707 C 119.15621,545.7293 119.99314,545.93992 120.82174,546.03207 C 122.89357,546.92285 125.3014,547.08756 127.19674,546.46957 C 129.69772,545.65411 131.37463,544.08958 132.69674,542.46957 C 135.34097,539.22956 137.03872,535.70043 136.66549,531.21957 C 135.97277,522.90284 130.16025,516.95092 123.63424,514.28207 C 117.10823,511.61322 109.70772,511.46753 103.29049,513.75082 C 92.60527,517.55277 85.63656,526.26614 82.66549,535.96957 C 79.69442,545.673 80.4026,556.48351 84.79049,565.78207 C 97.34572,592.38843 130.97634,599.25891 155.35299,586.18832 C 187.41161,568.99876 195.37024,527.29742 177.97799,497.15707 C 170.49165,484.18346 159.50874,474.63796 147.00924,468.56332 C 147.34784,468.3446 147.66905,468.12578 148.00924,467.90707 C 148.04129,467.88647 148.07093,467.86517 148.10299,467.84457 C 149.62677,467.26268 151.16345,466.6659 152.82174,465.68832 C 169.08,456.10397 180.80647,453.71478 188.25924,453.53207 C 191.98563,453.44072 194.66051,453.91535 196.32174,454.34457 C 197.98297,454.77379 198.32174,455.00082 198.32174,455.00082 C 219.52059,468.15754 235.77634,473.35899 251.38424,470.25082 C 267.06496,467.12815 280.73734,456.29846 298.29049,440.06332 C 307.10311,431.91241 315.33438,424.87973 323.10299,418.71957 C 351.46883,422.33698 380.3324,432.53339 409.00924,452.06332 C 423.22094,461.74203 437.06061,469.91462 450.60299,477.12582 C 450.34311,477.11792 450.08014,477.06048 449.82174,477.06332 C 444.56392,477.12108 439.44859,479.12551 435.54049,482.75082 C 424.62268,492.87861 426.38226,509.92393 436.29049,519.56332 C 449.14389,532.06799 469.7266,529.61363 481.19674,517.06332 C 486.86312,510.86335 489.7013,503.18024 490.16549,495.43832 C 566.56119,525.26008 629.74616,518.32757 673.97799,503.28207 C 696.82377,495.51106 710.8892,483.8283 723.04198,475.87403 C 735.19476,467.91976 742.45924,459.75231 742.45924,459.75231 L 742.07174,459.71957 L 742.04049,459.68832 C 733.53722,467.23042 635.63174,549.68188 485.41549,486.90707 C 486.94879,495.94711 484.78579,505.50709 478.16549,512.75082 C 468.56779,523.25236 451.29639,525.31372 440.72799,515.03207 C 432.79879,507.31801 431.37543,493.67517 439.88424,485.78207 C 445.68224,480.40361 455.83329,479.52913 460.97799,486.31332 C 463.85409,490.10601 464.17223,497.1281 459.00924,499.25082 C 457.25394,499.97246 452.96503,498.94934 453.88424,496.53207 C 453.78614,496.33104 453.69889,496.0786 453.72799,495.75082 L 454.22799,495.87582 C 454.06819,496.10256 453.96273,496.32544 453.88424,496.53207 C 454.43984,497.67126 456.71953,496.92797 457.38424,496.06332 C 459.50324,493.30665 457.11883,489.64604 454.38424,488.50082 C 449.49274,486.45226 444.29709,490.07275 442.85299,494.78207 C 440.73359,501.69321 445.76443,508.60229 452.44674,510.28207 C 461.35324,512.52097 470.02429,506.03263 471.91549,497.37582 C 473.89919,488.29554 468.60573,479.11055 460.25924,475.40707 C 459.65344,475.1383 459.16489,474.8264 458.79049,474.50082 C 443.88719,466.82947 428.53903,457.71621 412.75924,446.96957 C 382.71464,426.50815 352.25956,415.90525 322.41549,412.43832 C 314.03921,418.99638 305.10883,426.61734 295.57174,435.43832 C 260.78751,467.6107 243.32954,475.61278 201.60299,449.62582 C 201.60299,449.62582 184.749,440.49884 150.97799,460.40707 C 149.12283,461.5007 147.52006,462.24067 146.10299,462.68832 C 142.9307,464.72697 139.81844,466.7698 136.75924,468.84457 C 152.05018,473.89444 165.60816,483.9775 174.25924,498.96957 C 190.2659,526.70873 182.94913,565.12843 153.69674,580.81332 C 131.74942,592.58132 101.47165,586.41033 90.32174,562.78207 C 82.72406,546.6815 87.79519,524.30103 105.85299,517.87582 C 115.94816,514.28389 131.24739,518.35239 132.29049,530.87582 C 132.64422,535.12259 127.53141,543.61065 122.97799,540.06332 C 122.47303,540.14549 121.89515,540.10483 121.19674,539.81332 L 121.79049,538.84457 C 122.1794,539.35614 122.57641,539.75046 122.97799,540.06332 C 125.76814,539.60929 125.75096,534.22632 124.35299,532.21957 C 119.87882,525.79721 110.35814,528.38053 106.04049,533.46957 C 98.31716,542.57258 102.57333,556.22969 111.69674,562.53207 C 125.08577,571.78106 143.32782,565.63529 151.47799,552.43832 C 162.34092,534.84877 154.26824,511.8853 136.97799,501.93832 C 121.96562,493.30177 103.42985,495.32023 89.75924,505.00082 C 87.26903,507.15149 84.88286,509.24556 82.57174,511.31332 C 82.35934,511.54343 82.1547,511.76591 81.94674,512.00082 C 80.9684,513.10603 79.9842,513.91973 79.04049,514.50082 C 56.96605,534.59893 44.13425,549.59457 44.13424,549.59457 C 44.13425,549.59457 21.7413,579.48641 -17.20951,584.50082 C -120.24505,592.08741 -109.23808,461.38613 -29.11576,477.40707 C 3.6299399,482.51031 42.4155,459.78207 42.41549,459.78207 C 137.7632,396.02886 208.07567,371.18865 264.32174,368.15707 C 265.43546,367.7758 266.78914,367.60707 268.44674,367.68832 C 287.27369,368.61114 305.54689,356.61495 310.32174,338.03207 C 314.8739,320.31586 304.97738,300.30009 286.47799,296.15707 C 272.59836,293.04867 256.8948,301.07243 254.38424,315.78207 C 252.67352,325.80538 258.87015,337.36036 269.79049,338.12582 C 275.89543,338.55376 283.69978,333.9571 282.35299,326.90707 C 281.93174,324.70201 278.40646,321.23098 276.32174,322.78207 C 276.27014,323.2451 276.298,323.76312 276.38424,324.34457 L 275.35299,324.12582 C 275.60781,323.4844 275.94688,323.06097 276.32174,322.78207 C 276.90841,317.51767 285.76173,319.60972 288.32174,322.56332 C 295.86939,331.27139 288.73991,343.92931 279.91549,348.25082 C 264.13067,355.98098 246.20414,344.95711 240.50924,329.65707 C 232.15176,307.20365 247.5085,283.35955 269.29049,276.50082 C 273.82673,275.07244 278.39327,274.37453 282.88424,274.28207 C 307.13544,273.78279 329.43256,291.61376 336.13424,315.46957 C 342.02604,336.44267 335.99376,357.56754 322.91549,373.21957 C 330.96497,375.11317 338.73323,377.45324 346.25924,380.15707 C 407.30024,346.20864 435.22789,382.88505 441.91549,423.62582 C 431.41389,390.90402 410.24289,364.84564 362.72799,386.75082 C 419.86999,412.10023 464.82289,456.25003 524.79049,476.87582 C 535.23659,480.46876 545.37703,483.4112 555.19674,485.75082 C 555.55234,485.71388 555.95903,485.76036 556.44674,485.90707 C 561.79734,487.5167 567.90249,485.38114 570.60299,480.37582 C 573.17739,475.60391 571.75439,469.13848 566.72799,466.62582 C 562.95679,464.74062 557.87539,465.91687 556.10299,469.96957 C 554.89519,472.73111 555.85963,476.50095 558.94674,477.50082 C 560.67254,478.0598 563.23719,477.31275 563.35299,475.18832 C 563.38929,474.52305 562.62679,473.26177 561.91549,473.56332 C 561.86609,473.6946 561.83873,473.82389 561.82174,474.00082 L 561.54049,473.87582 C 561.65879,473.7106 561.78859,473.61711 561.91549,473.56332 C 562.46569,472.10284 564.85943,473.31389 565.38424,474.34457 C 566.93404,477.38871 563.98153,480.54381 561.13424,481.15707 C 556.04114,482.25407 551.68033,477.77793 551.13424,472.96957 C 550.33284,465.91312 556.44033,460.16896 563.19674,459.75082 C 572.20184,459.19351 579.36763,467.01829 579.63424,475.71957 C 579.80094,481.16259 577.53043,486.03064 573.88424,489.56332 C 672.11814,506.44817 734.09322,465.21128 741.97799,459.59457 M 392.82174,384.59457 C 400.74162,384.46093 407.18162,386.48781 412.63424,389.90707 C 422.99259,396.40264 430.24286,408.96538 435.29049,423.71957 C 415.87133,411.07049 396.10853,398.57271 374.82174,388.06332 C 381.55052,385.82627 387.55345,384.68347 392.82174,384.59457 z M 300.57174,411.12582 C 272.92569,410.99341 246.03918,416.55374 220.69674,425.46957 C 225.89331,435.2444 246.67986,465.19482 290.79049,423.00082 C 295.19074,418.79177 299.48611,414.86579 303.66549,411.18832 C 302.63551,411.16763 301.5997,411.13074 300.57174,411.12582 z M 289.25924,417.37582 C 288.28829,418.28712 287.36558,419.06212 286.38424,420.00082 C 265.06995,440.38899 251.07484,442.28945 241.85299,439.50082 C 235.67943,437.63397 231.13448,433.20557 228.04049,429.15707 C 247.76362,422.74023 268.25955,418.37829 289.25924,417.37582 z M 447.75924,495.81332 C 447.74681,495.89639 447.73639,495.97975 447.72799,496.06332 C 447.65689,496.86419 447.7513,497.63346 447.91549,498.28207 C 447.99961,499.61591 448.31571,500.93931 448.97799,501.87582 C 450.12928,503.50383 451.48574,504.20697 452.69674,504.68832 C 454.92787,505.57515 456.83639,505.98061 459.50924,505.06332 C 457.45972,506.06168 455.21167,506.57803 452.91549,506.00082 C 448.9118,504.99439 445.88486,500.86294 447.04049,497.09457 C 447.17407,496.65894 447.46141,496.23206 447.75924,495.81332 z " id="path3465" sodipodi:nodetypes="cccssscsccsccscsssssssscsscccssssssscsscssscccscccssscsssssscccsscssssssssscscssscsscscsssscssccccsssssccccsssssscscscsccsssssccccsssssccscsccscssssssccccssssssccccscssssssccccssssscccscccccscccsscccscsscss" transform="matrix(-1.95678, 0, 0, 1.95678, 1902.67, -263.827)"/>
    <g id="g3877" transform="matrix(-1.35104, 0, 0, 1.35104, 1743.69, -2.61372)">
      <path id="path3473" d="M 326.41636,285.54279 C 321.92546,285.63525 317.35886,286.33316 312.82266,287.76154 C 291.04066,294.62027 275.68386,318.46437 284.04136,340.91779 C 289.73626,356.21783 307.66286,367.2417 323.44766,359.51154 C 332.27206,355.19003 339.40156,342.53211 331.85386,333.82404 C 329.29386,330.87044 320.44056,328.77839 319.85386,334.04279 C 321.93866,332.4917 325.46386,335.96273 325.88516,338.16779 C 327.23196,345.21782 319.42756,349.81448 313.32266,349.38654 C 302.40226,348.62108 296.20566,337.0661 297.91636,327.04279 C 300.42696,312.33315 316.13046,304.30939 330.01016,307.41779 C 348.50956,311.56081 358.40606,331.57658 353.85386,349.29279 C 349.07906,367.87567 330.80586,379.87186 311.97886,378.94904 C 310.32126,378.86779 308.96756,379.03652 307.85386,379.41779 C 251.60786,382.44937 181.29536,407.28958 85.947649,471.04279 C 85.947649,471.04279 47.162049,493.77103 14.416349,488.66779 C -65.705941,472.64685 -76.712941,603.34813 26.322649,595.76154 C 65.273449,590.74713 87.666349,560.85529 87.666349,560.85529 C 87.666349,560.85529 100.49815,545.85965 122.57265,525.76154 C 123.51635,525.18045 124.50055,524.36675 125.47885,523.26154 C 125.68685,523.02663 125.89145,522.80415 126.10385,522.57404 C 128.41495,520.50628 130.80115,518.41221 133.29135,516.26154 C 146.96196,506.58095 165.49776,504.56249 180.51016,513.19904 C 197.80036,523.14602 205.87306,546.10949 195.01016,563.69904 C 186.85996,576.89601 168.61796,583.04178 155.22886,573.79279 C 146.10546,567.49041 141.84925,553.8333 149.57266,544.73029 C 153.89026,539.64125 163.41096,537.05793 167.88516,543.48029 C 169.28306,545.48704 169.30026,550.87001 166.51016,551.32404 C 171.06356,554.87137 176.17636,546.38331 175.82266,542.13654 C 174.77956,529.61311 159.48026,525.54461 149.38516,529.13654 C 131.32735,535.56175 126.25615,557.94222 133.85385,574.04279 C 145.00376,597.67105 175.28156,603.84204 197.22886,592.07404 C 226.48126,576.38915 233.79806,537.96945 217.79136,510.23029 C 209.14036,495.23822 195.58236,485.15516 180.29136,480.10529 C 183.35056,478.03052 186.46286,475.98769 189.63516,473.94904 C 191.05226,473.50139 192.65496,472.76142 194.51016,471.66779 C 228.28116,451.75956 245.13516,460.88654 245.13516,460.88654 C 286.86166,486.8735 304.31966,478.87142 339.10386,446.69904 C 348.64096,437.87806 357.57136,430.2571 365.94766,423.69904 C 395.79176,427.16597 426.24686,437.76887 456.29146,458.23029 C 472.07126,468.97693 487.41936,478.09019 502.32266,485.76154 C 502.69706,486.08712 503.18566,486.39902 503.79146,486.66779 C 512.13796,490.37127 517.43136,499.55626 515.44766,508.63654 C 513.55646,517.29335 504.88546,523.78169 495.97896,521.54279 C 489.29666,519.86301 484.26576,512.95393 486.38516,506.04279 C 487.82926,501.33347 493.02496,497.71298 497.91646,499.76154 C 500.65106,500.90676 503.03546,504.56737 500.91646,507.32404 C 500.25176,508.18869 497.97206,508.93198 497.41646,507.79279 C 496.49726,510.21006 500.78616,511.23318 502.54146,510.51154 C 507.70446,508.38882 507.38626,501.36673 504.51016,497.57404 C 499.36546,490.78985 489.21446,491.66433 483.41646,497.04279 C 474.90766,504.93589 476.33096,518.57873 484.26016,526.29279 C 494.82856,536.57444 512.09996,534.51308 521.69766,524.01154 C 528.31796,516.76781 530.48096,507.20783 528.94766,498.16779 C 686.21876,563.8908 786.41636,470.19903 786.41646,470.19904 C 786.41646,470.19904 722.71906,518.92389 617.41646,500.82404 C 621.06266,497.29136 623.33316,492.42331 623.16646,486.98029 C 622.89986,478.27901 615.73406,470.45423 606.72896,471.01154 C 599.97256,471.42968 593.86506,477.17384 594.66646,484.23029 C 595.21256,489.03865 599.57336,493.51479 604.66646,492.41779 C 607.51376,491.80453 610.46626,488.64943 608.91646,485.60529 C 608.39166,484.57461 605.99786,483.36356 605.44766,484.82404 C 606.15896,484.52249 606.92146,485.78377 606.88516,486.44904 C 606.76936,488.57347 604.20476,489.32052 602.47896,488.76154 C 599.39186,487.76167 598.42736,483.99183 599.63516,481.23029 C 601.40756,477.17759 606.48896,476.00134 610.26016,477.88654 C 615.28656,480.3992 616.70956,486.86463 614.13516,491.63654 C 611.43466,496.64186 605.32956,498.77742 599.97896,497.16779 C 599.49126,497.02108 599.08456,496.9746 598.72896,497.01154 C 588.90926,494.67192 578.76876,491.72948 568.32266,488.13654 C 508.35506,467.51075 463.40216,423.36095 406.26016,398.01154 C 453.77506,376.10636 474.94606,402.16474 485.44766,434.88654 C 478.76006,394.14577 450.83246,357.46936 389.79146,391.41779 C 382.26546,388.71396 374.49716,386.37389 366.44766,384.48029 C 379.52596,368.82826 385.55826,347.70339 379.66646,326.73029 C 372.96476,302.87448 350.66756,285.04351 326.41636,285.54279 z M 605.44766,484.82404 C 605.32076,484.87783 605.19096,484.97132 605.07266,485.13654 L 605.35396,485.26154 C 605.37096,485.08461 605.39826,484.95532 605.44766,484.82404 z M 497.41646,507.79279 C 497.49496,507.58616 497.60036,507.36328 497.76016,507.13654 L 497.26016,507.01154 C 497.23106,507.33932 497.31836,507.59176 497.41646,507.79279 z M 166.51016,551.32404 C 166.10856,551.01118 165.71156,550.61686 165.32266,550.10529 L 164.72886,551.07404 C 165.42726,551.36555 166.00516,551.40621 166.51016,551.32404 z M 319.85386,334.04279 C 319.47906,334.32169 319.13996,334.74512 318.88516,335.38654 L 319.91636,335.60529 C 319.83016,335.02384 319.80226,334.50582 319.85386,334.04279 z M 344.10386,422.38654 C 345.13186,422.39146 346.16766,422.42835 347.19766,422.44904 C 343.01826,426.12651 338.72286,430.05249 334.32266,434.26154 C 290.21206,476.45554 269.42546,446.50512 264.22886,436.73029 C 289.57136,427.81446 316.45786,422.25413 344.10386,422.38654 z " style="opacity: 0.288703; fill: rgb(255, 255, 215); fill-opacity: 1; fill-rule: evenodd; stroke: none; stroke-width: 1px; stroke-linecap: butt; stroke-linejoin: miter; stroke-opacity: 1; filter: url(&quot;#filter3809&quot;);"/>
      <path style="opacity: 1; fill: rgb(255, 255, 255); fill-opacity: 1; fill-rule: evenodd; stroke: none; stroke-width: 1px; stroke-linecap: butt; stroke-linejoin: miter; stroke-opacity: 1; filter: url(&quot;#filter3873&quot;);" d="M 284.08303,264.79999 C 279.59213,264.89245 275.02553,265.59036 270.48933,267.01874 C 248.70733,273.87747 233.35053,297.72157 241.70803,320.17499 C 247.40293,335.47503 265.32953,346.4989 281.11433,338.76874 C 289.93873,334.44723 297.06823,321.78931 289.52053,313.08124 C 286.96053,310.12764 278.10723,308.03559 277.52053,313.29999 C 279.60533,311.7489 283.13053,315.21993 283.55183,317.42499 C 284.89863,324.47502 277.09423,329.07168 270.98933,328.64374 C 260.06893,327.87828 253.87233,316.3233 255.58303,306.29999 C 258.09363,291.59035 273.79713,283.56659 287.67683,286.67499 C 306.17623,290.81801 316.07273,310.83378 311.52053,328.54999 C 306.74573,347.13287 288.47253,359.12906 269.64553,358.20624 C 267.98793,358.12499 266.63423,358.29372 265.52053,358.67499 C 209.27453,361.70657 138.96203,386.54678 43.61432,450.29999 C 43.61432,450.29999 4.8287203,473.02823 -27.91698,467.92499 C -108.03927,451.90405 -119.04627,582.60533 -16.01068,575.01874 C 22.94012,570.00433 45.33302,540.11249 45.33302,540.11249 C 45.33302,540.11249 58.16482,525.11685 80.23932,505.01874 C 81.18302,504.43765 82.16722,503.62395 83.14552,502.51874 C 83.35352,502.28383 83.55812,502.06135 83.77052,501.83124 C 86.08162,499.76348 88.46782,497.66941 90.95802,495.51874 C 104.62863,485.83815 123.16443,483.81969 138.17683,492.45624 C 155.46703,502.40322 163.53973,525.36669 152.67683,542.95624 C 144.52663,556.15321 126.28463,562.29898 112.89553,553.04999 C 103.77213,546.74761 99.51592,533.0905 107.23933,523.98749 C 111.55693,518.89845 121.07763,516.31513 125.55183,522.73749 C 126.94973,524.74424 126.96693,530.12721 124.17683,530.58124 C 128.73023,534.12857 133.84303,525.64051 133.48933,521.39374 C 132.44623,508.87031 117.14693,504.80181 107.05183,508.39374 C 88.99402,514.81895 83.92282,537.19942 91.52052,553.29999 C 102.67043,576.92825 132.94823,583.09924 154.89553,571.33124 C 184.14793,555.64635 191.46473,517.22665 175.45803,489.48749 C 166.80703,474.49542 153.24903,464.41236 137.95803,459.36249 C 141.01723,457.28772 144.12953,455.24489 147.30183,453.20624 C 148.71893,452.75859 150.32163,452.01862 152.17683,450.92499 C 185.94783,431.01676 202.80183,440.14374 202.80183,440.14374 C 244.52833,466.1307 261.98633,458.12862 296.77053,425.95624 C 306.30763,417.13526 315.23803,409.5143 323.61433,402.95624 C 353.45843,406.42317 383.91353,417.02607 413.95813,437.48749 C 429.73793,448.23413 445.08603,457.34739 459.98933,465.01874 C 460.36373,465.34432 460.85233,465.65622 461.45813,465.92499 C 469.80463,469.62847 475.09803,478.81346 473.11433,487.89374 C 471.22313,496.55055 462.55213,503.03889 453.64563,500.79999 C 446.96333,499.12021 441.93243,492.21113 444.05183,485.29999 C 445.49593,480.59067 450.69163,476.97018 455.58313,479.01874 C 458.31773,480.16396 460.70213,483.82457 458.58313,486.58124 C 457.91843,487.44589 455.63873,488.18918 455.08313,487.04999 C 454.16393,489.46726 458.45283,490.49038 460.20813,489.76874 C 465.37113,487.64602 465.05293,480.62393 462.17683,476.83124 C 457.03213,470.04705 446.88113,470.92153 441.08313,476.29999 C 432.57433,484.19309 433.99763,497.83593 441.92683,505.54999 C 452.49523,515.83164 469.76663,513.77028 479.36433,503.26874 C 485.98463,496.02501 488.14763,486.46503 486.61433,477.42499 C 643.88543,543.148 744.08303,449.45623 744.08313,449.45624 C 744.08313,449.45624 680.38573,498.18109 575.08313,480.08124 C 578.72933,476.54856 580.99983,471.68051 580.83313,466.23749 C 580.56653,457.53621 573.40073,449.71143 564.39563,450.26874 C 557.63923,450.68688 551.53173,456.43104 552.33313,463.48749 C 552.87923,468.29585 557.24003,472.77199 562.33313,471.67499 C 565.18043,471.06173 568.13293,467.90663 566.58313,464.86249 C 566.05833,463.83181 563.66453,462.62076 563.11433,464.08124 C 563.82563,463.77969 564.58813,465.04097 564.55183,465.70624 C 564.43603,467.83067 561.87143,468.57772 560.14563,468.01874 C 557.05853,467.01887 556.09403,463.24903 557.30183,460.48749 C 559.07423,456.43479 564.15563,455.25854 567.92683,457.14374 C 572.95323,459.6564 574.37623,466.12183 571.80183,470.89374 C 569.10133,475.89906 562.99623,478.03462 557.64563,476.42499 C 557.15793,476.27828 556.75123,476.2318 556.39563,476.26874 C 546.57593,473.92912 536.43543,470.98668 525.98933,467.39374 C 466.02173,446.76795 421.06883,402.61815 363.92683,377.26874 C 411.44173,355.36356 432.61273,381.42194 443.11433,414.14374 C 436.42673,373.40297 408.49913,336.72656 347.45813,370.67499 C 339.93213,367.97116 332.16383,365.63109 324.11433,363.73749 C 337.19263,348.08546 343.22493,326.96059 337.33313,305.98749 C 330.63143,282.13168 308.33423,264.30071 284.08303,264.79999 z M 563.11433,464.08124 C 562.98743,464.13503 562.85763,464.22852 562.73933,464.39374 L 563.02063,464.51874 C 563.03763,464.34181 563.06493,464.21252 563.11433,464.08124 z M 455.08313,487.04999 C 455.16163,486.84336 455.26703,486.62048 455.42683,486.39374 L 454.92683,486.26874 C 454.89773,486.59652 454.98503,486.84896 455.08313,487.04999 z M 124.17683,530.58124 C 123.77523,530.26838 123.37823,529.87406 122.98933,529.36249 L 122.39553,530.33124 C 123.09393,530.62275 123.67183,530.66341 124.17683,530.58124 z M 277.52053,313.29999 C 277.14573,313.57889 276.80663,314.00232 276.55183,314.64374 L 277.58303,314.86249 C 277.49683,314.28104 277.46893,313.76302 277.52053,313.29999 z M 301.77053,401.64374 C 302.79853,401.64866 303.83433,401.68555 304.86433,401.70624 C 300.68493,405.38371 296.38953,409.30969 291.98933,413.51874 C 247.87873,455.71274 227.09213,425.76232 221.89553,415.98749 C 247.23803,407.07166 274.12453,401.51133 301.77053,401.64374 z " id="path3813"/>
      <path id="path3847" d="M 284.08303,264.79999 C 279.59213,264.89245 275.02553,265.59036 270.48933,267.01874 C 248.70733,273.87747 233.35053,297.72157 241.70803,320.17499 C 247.40293,335.47503 265.32953,346.4989 281.11433,338.76874 C 289.93873,334.44723 297.06823,321.78931 289.52053,313.08124 C 286.96053,310.12764 278.10723,308.03559 277.52053,313.29999 C 279.60533,311.7489 283.13053,315.21993 283.55183,317.42499 C 284.89863,324.47502 277.09423,329.07168 270.98933,328.64374 C 260.06893,327.87828 253.87233,316.3233 255.58303,306.29999 C 258.09363,291.59035 273.79713,283.56659 287.67683,286.67499 C 306.17623,290.81801 316.07273,310.83378 311.52053,328.54999 C 306.74573,347.13287 288.47253,359.12906 269.64553,358.20624 C 267.98793,358.12499 266.63423,358.29372 265.52053,358.67499 C 209.27453,361.70657 138.96203,386.54678 43.61432,450.29999 C 43.61432,450.29999 4.8287203,473.02823 -27.91698,467.92499 C -108.03927,451.90405 -119.04627,582.60533 -16.01068,575.01874 C 22.94012,570.00433 45.33302,540.11249 45.33302,540.11249 C 45.33302,540.11249 58.16482,525.11685 80.23932,505.01874 C 81.18302,504.43765 82.16722,503.62395 83.14552,502.51874 C 83.35352,502.28383 83.55812,502.06135 83.77052,501.83124 C 86.08162,499.76348 88.46782,497.66941 90.95802,495.51874 C 104.62863,485.83815 123.16443,483.81969 138.17683,492.45624 C 155.46703,502.40322 163.53973,525.36669 152.67683,542.95624 C 144.52663,556.15321 126.28463,562.29898 112.89553,553.04999 C 103.77213,546.74761 99.51592,533.0905 107.23933,523.98749 C 111.55693,518.89845 121.07763,516.31513 125.55183,522.73749 C 126.94973,524.74424 126.96693,530.12721 124.17683,530.58124 C 128.73023,534.12857 133.84303,525.64051 133.48933,521.39374 C 132.44623,508.87031 117.14693,504.80181 107.05183,508.39374 C 88.99402,514.81895 83.92282,537.19942 91.52052,553.29999 C 102.67043,576.92825 132.94823,583.09924 154.89553,571.33124 C 184.14793,555.64635 191.46473,517.22665 175.45803,489.48749 C 166.80703,474.49542 153.24903,464.41236 137.95803,459.36249 C 141.01723,457.28772 144.12953,455.24489 147.30183,453.20624 C 148.71893,452.75859 150.32163,452.01862 152.17683,450.92499 C 185.94783,431.01676 202.80183,440.14374 202.80183,440.14374 C 244.52833,466.1307 261.98633,458.12862 296.77053,425.95624 C 306.30763,417.13526 315.23803,409.5143 323.61433,402.95624 C 353.45843,406.42317 383.91353,417.02607 413.95813,437.48749 C 429.73793,448.23413 445.08603,457.34739 459.98933,465.01874 C 460.36373,465.34432 460.85233,465.65622 461.45813,465.92499 C 469.80463,469.62847 475.09803,478.81346 473.11433,487.89374 C 471.22313,496.55055 462.55213,503.03889 453.64563,500.79999 C 446.96333,499.12021 441.93243,492.21113 444.05183,485.29999 C 445.49593,480.59067 450.69163,476.97018 455.58313,479.01874 C 458.31773,480.16396 460.70213,483.82457 458.58313,486.58124 C 457.91843,487.44589 455.63873,488.18918 455.08313,487.04999 C 454.16393,489.46726 458.45283,490.49038 460.20813,489.76874 C 465.37113,487.64602 465.05293,480.62393 462.17683,476.83124 C 457.03213,470.04705 446.88113,470.92153 441.08313,476.29999 C 432.57433,484.19309 433.99763,497.83593 441.92683,505.54999 C 452.49523,515.83164 469.76663,513.77028 479.36433,503.26874 C 485.98463,496.02501 488.14763,486.46503 486.61433,477.42499 C 643.88543,543.148 744.08303,449.45623 744.08313,449.45624 C 744.08313,449.45624 680.38573,498.18109 575.08313,480.08124 C 578.72933,476.54856 580.99983,471.68051 580.83313,466.23749 C 580.56653,457.53621 573.40073,449.71143 564.39563,450.26874 C 557.63923,450.68688 551.53173,456.43104 552.33313,463.48749 C 552.87923,468.29585 557.24003,472.77199 562.33313,471.67499 C 565.18043,471.06173 568.13293,467.90663 566.58313,464.86249 C 566.05833,463.83181 563.66453,462.62076 563.11433,464.08124 C 563.82563,463.77969 564.58813,465.04097 564.55183,465.70624 C 564.43603,467.83067 561.87143,468.57772 560.14563,468.01874 C 557.05853,467.01887 556.09403,463.24903 557.30183,460.48749 C 559.07423,456.43479 564.15563,455.25854 567.92683,457.14374 C 572.95323,459.6564 574.37623,466.12183 571.80183,470.89374 C 569.10133,475.89906 562.99623,478.03462 557.64563,476.42499 C 557.15793,476.27828 556.75123,476.2318 556.39563,476.26874 C 546.57593,473.92912 536.43543,470.98668 525.98933,467.39374 C 466.02173,446.76795 421.06883,402.61815 363.92683,377.26874 C 411.44173,355.36356 432.61273,381.42194 443.11433,414.14374 C 436.42673,373.40297 408.49913,336.72656 347.45813,370.67499 C 339.93213,367.97116 332.16383,365.63109 324.11433,363.73749 C 337.19263,348.08546 343.22493,326.96059 337.33313,305.98749 C 330.63143,282.13168 308.33423,264.30071 284.08303,264.79999 z M 563.11433,464.08124 C 562.98743,464.13503 562.85763,464.22852 562.73933,464.39374 L 563.02063,464.51874 C 563.03763,464.34181 563.06493,464.21252 563.11433,464.08124 z M 455.08313,487.04999 C 455.16163,486.84336 455.26703,486.62048 455.42683,486.39374 L 454.92683,486.26874 C 454.89773,486.59652 454.98503,486.84896 455.08313,487.04999 z M 124.17683,530.58124 C 123.77523,530.26838 123.37823,529.87406 122.98933,529.36249 L 122.39553,530.33124 C 123.09393,530.62275 123.67183,530.66341 124.17683,530.58124 z M 277.52053,313.29999 C 277.14573,313.57889 276.80663,314.00232 276.55183,314.64374 L 277.58303,314.86249 C 277.49683,314.28104 277.46893,313.76302 277.52053,313.29999 z M 301.77053,401.64374 C 302.79853,401.64866 303.83433,401.68555 304.86433,401.70624 C 300.68493,405.38371 296.38953,409.30969 291.98933,413.51874 C 247.87873,455.71274 227.09213,425.76232 221.89553,415.98749 C 247.23803,407.07166 274.12453,401.51133 301.77053,401.64374 z " style="opacity: 0.401674; fill: rgb(255, 255, 255); fill-opacity: 1; fill-rule: evenodd; stroke: none; stroke-width: 1px; stroke-linecap: butt; stroke-linejoin: miter; stroke-opacity: 1;"/>
    </g>
    <g id="g4561" transform="matrix(1.35104, 0, 0, 1.35104, -550.819, -182.822)">
      <g style="opacity: 0.309623;" transform="translate(51.3157, -37.6315)" id="g4449">
        <path sodipodi:type="arc" style="opacity: 1; fill: rgb(255, 255, 255); fill-opacity: 1; fill-rule: nonzero; stroke: none; stroke-width: 135.5; stroke-linecap: round; stroke-linejoin: round; stroke-miterlimit: 4; stroke-dasharray: none; stroke-opacity: 1; filter: url(&quot;#filter4299&quot;);" id="path3901" sodipodi:cx="821.05188" sodipodi:cy="504.34259" sodipodi:rx="27.368397" sodipodi:ry="27.368397" d="M 848.42028 504.34259 A 27.368397 27.368397 0 1 1  793.68348,504.34259 A 27.368397 27.368397 0 1 1  848.42028 504.34259 z" transform="matrix(0.3125, 0, 0, 0.3125, 749.21, 358.709)"/>
        <path transform="matrix(0.1875, 0, 0, -0.1875, 851.841, 610.88)" d="M 848.42028 504.34259 A 27.368397 27.368397 0 1 1  793.68348,504.34259 A 27.368397 27.368397 0 1 1  848.42028 504.34259 z" sodipodi:ry="27.368397" sodipodi:rx="27.368397" sodipodi:cy="504.34259" sodipodi:cx="821.05188" id="path4303" style="opacity: 1; fill: rgb(255, 255, 255); fill-opacity: 1; fill-rule: nonzero; stroke: none; stroke-width: 135.5; stroke-linecap: round; stroke-linejoin: round; stroke-miterlimit: 4; stroke-dasharray: none; stroke-opacity: 1;" sodipodi:type="arc"/>
      </g>
      <g id="g4453" transform="matrix(1.08312, 0.284377, -0.646432, 1.2323, 161.212, -216.095)">
        <path transform="matrix(0.3125, 0, 0, 0.3125, 749.21, 358.709)" d="M 848.42028 504.34259 A 27.368397 27.368397 0 1 1  793.68348,504.34259 A 27.368397 27.368397 0 1 1  848.42028 504.34259 z" sodipodi:ry="27.368397" sodipodi:rx="27.368397" sodipodi:cy="504.34259" sodipodi:cx="821.05188" id="path4455" style="opacity: 1; fill: rgb(255, 255, 255); fill-opacity: 1; fill-rule: nonzero; stroke: none; stroke-width: 135.5; stroke-linecap: round; stroke-linejoin: round; stroke-miterlimit: 4; stroke-dasharray: none; stroke-opacity: 1; filter: url(&quot;#filter4299&quot;);" sodipodi:type="arc"/>
        <path sodipodi:type="arc" style="opacity: 1; fill: rgb(255, 255, 255); fill-opacity: 1; fill-rule: nonzero; stroke: none; stroke-width: 135.5; stroke-linecap: round; stroke-linejoin: round; stroke-miterlimit: 4; stroke-dasharray: none; stroke-opacity: 1;" id="path4457" sodipodi:cx="821.05188" sodipodi:cy="504.34259" sodipodi:rx="27.368397" sodipodi:ry="27.368397" d="M 848.42028 504.34259 A 27.368397 27.368397 0 1 1  793.68348,504.34259 A 27.368397 27.368397 0 1 1  848.42028 504.34259 z" transform="matrix(0.1875, 0, 0, -0.1875, 851.841, 610.88)"/>
      </g>
      <g transform="matrix(0.769918, 0.53206, -0.399575, 0.631796, 572.852, -324.504)" id="g4459">
        <path sodipodi:type="arc" style="opacity: 1; fill: rgb(255, 255, 255); fill-opacity: 1; fill-rule: nonzero; stroke: none; stroke-width: 135.5; stroke-linecap: round; stroke-linejoin: round; stroke-miterlimit: 4; stroke-dasharray: none; stroke-opacity: 1; filter: url(&quot;#filter4299&quot;);" id="path4461" sodipodi:cx="821.05188" sodipodi:cy="504.34259" sodipodi:rx="27.368397" sodipodi:ry="27.368397" d="M 848.42028 504.34259 A 27.368397 27.368397 0 1 1  793.68348,504.34259 A 27.368397 27.368397 0 1 1  848.42028 504.34259 z" transform="matrix(0.3125, 0, 0, 0.3125, 749.21, 358.709)"/>
        <path transform="matrix(0.1875, 0, 0, -0.1875, 851.841, 610.88)" d="M 848.42028 504.34259 A 27.368397 27.368397 0 1 1  793.68348,504.34259 A 27.368397 27.368397 0 1 1  848.42028 504.34259 z" sodipodi:ry="27.368397" sodipodi:rx="27.368397" sodipodi:cy="504.34259" sodipodi:cx="821.05188" id="path4463" style="opacity: 1; fill: rgb(255, 255, 255); fill-opacity: 1; fill-rule: nonzero; stroke: none; stroke-width: 135.5; stroke-linecap: round; stroke-linejoin: round; stroke-miterlimit: 4; stroke-dasharray: none; stroke-opacity: 1;" sodipodi:type="arc"/>
      </g>
      <g style="opacity: 0.719665;" transform="matrix(0.771757, -0.811429, 0.76737, 1.16085, 132.701, 863.075)" id="g4491">
        <path sodipodi:type="arc" style="opacity: 1; fill: rgb(255, 255, 255); fill-opacity: 1; fill-rule: nonzero; stroke: none; stroke-width: 135.5; stroke-linecap: round; stroke-linejoin: round; stroke-miterlimit: 4; stroke-dasharray: none; stroke-opacity: 1; filter: url(&quot;#filter4299&quot;);" id="path4493" sodipodi:cx="821.05188" sodipodi:cy="504.34259" sodipodi:rx="27.368397" sodipodi:ry="27.368397" d="M 848.42028 504.34259 A 27.368397 27.368397 0 1 1  793.68348,504.34259 A 27.368397 27.368397 0 1 1  848.42028 504.34259 z" transform="matrix(0.3125, 0, 0, 0.3125, 749.21, 358.709)"/>
        <path transform="matrix(0.1875, 0, 0, -0.1875, 851.841, 610.88)" d="M 848.42028 504.34259 A 27.368397 27.368397 0 1 1  793.68348,504.34259 A 27.368397 27.368397 0 1 1  848.42028 504.34259 z" sodipodi:ry="27.368397" sodipodi:rx="27.368397" sodipodi:cy="504.34259" sodipodi:cx="821.05188" id="path4495" style="opacity: 1; fill: rgb(255, 255, 255); fill-opacity: 1; fill-rule: nonzero; stroke: none; stroke-width: 135.5; stroke-linecap: round; stroke-linejoin: round; stroke-miterlimit: 4; stroke-dasharray: none; stroke-opacity: 1;" sodipodi:type="arc"/>
      </g>
      <g style="opacity: 0.447699;" id="g4497" transform="matrix(0.397024, 0.274368, -0.206049, 0.325798, 1251.67, 15.698)">
        <path transform="matrix(0.3125, 0, 0, 0.3125, 749.21, 358.709)" d="M 848.42028 504.34259 A 27.368397 27.368397 0 1 1  793.68348,504.34259 A 27.368397 27.368397 0 1 1  848.42028 504.34259 z" sodipodi:ry="27.368397" sodipodi:rx="27.368397" sodipodi:cy="504.34259" sodipodi:cx="821.05188" id="path4499" style="opacity: 1; fill: rgb(255, 255, 255); fill-opacity: 1; fill-rule: nonzero; stroke: none; stroke-width: 135.5; stroke-linecap: round; stroke-linejoin: round; stroke-miterlimit: 4; stroke-dasharray: none; stroke-opacity: 1; filter: url(&quot;#filter4299&quot;);" sodipodi:type="arc"/>
        <path sodipodi:type="arc" style="opacity: 1; fill: rgb(255, 255, 255); fill-opacity: 1; fill-rule: nonzero; stroke: none; stroke-width: 135.5; stroke-linecap: round; stroke-linejoin: round; stroke-miterlimit: 4; stroke-dasharray: none; stroke-opacity: 1;" id="path4501" sodipodi:cx="821.05188" sodipodi:cy="504.34259" sodipodi:rx="27.368397" sodipodi:ry="27.368397" d="M 848.42028 504.34259 A 27.368397 27.368397 0 1 1  793.68348,504.34259 A 27.368397 27.368397 0 1 1  848.42028 504.34259 z" transform="matrix(0.1875, 0, 0, -0.1875, 851.841, 610.88)"/>
      </g>
      <g transform="matrix(0.397024, 0.274368, -0.206049, 0.325798, 1239.69, -37.3282)" id="g4503" style="opacity: 0.447699;">
        <path sodipodi:type="arc" style="opacity: 1; fill: rgb(255, 255, 255); fill-opacity: 1; fill-rule: nonzero; stroke: none; stroke-width: 135.5; stroke-linecap: round; stroke-linejoin: round; stroke-miterlimit: 4; stroke-dasharray: none; stroke-opacity: 1; filter: url(&quot;#filter4299&quot;);" id="path4505" sodipodi:cx="821.05188" sodipodi:cy="504.34259" sodipodi:rx="27.368397" sodipodi:ry="27.368397" d="M 848.42028 504.34259 A 27.368397 27.368397 0 1 1  793.68348,504.34259 A 27.368397 27.368397 0 1 1  848.42028 504.34259 z" transform="matrix(0.3125, 0, 0, 0.3125, 749.21, 358.709)"/>
        <path transform="matrix(0.1875, 0, 0, -0.1875, 851.841, 610.88)" d="M 848.42028 504.34259 A 27.368397 27.368397 0 1 1  793.68348,504.34259 A 27.368397 27.368397 0 1 1  848.42028 504.34259 z" sodipodi:ry="27.368397" sodipodi:rx="27.368397" sodipodi:cy="504.34259" sodipodi:cx="821.05188" id="path4507" style="opacity: 1; fill: rgb(255, 255, 255); fill-opacity: 1; fill-rule: nonzero; stroke: none; stroke-width: 135.5; stroke-linecap: round; stroke-linejoin: round; stroke-miterlimit: 4; stroke-dasharray: none; stroke-opacity: 1;" sodipodi:type="arc"/>
      </g>
    </g>
    <path sodipodi:nodetypes="cccssscsccsccscsssssssscsscccssssssscsscssscccscccssscsssssscccsscssssssssscscssscsscscsssscssccccsssssccccsssssscscscsccsssssccccsssssccscsccscssssssccccssssssccccscssssssccccssssscccscccccscccsscccscsscss" id="path4697" d="M 449.96625,635.00634 C 449.96625,635.00634 571.06422,715.17734 763.67955,687.84234 C 761.0566,681.85715 759.61334,675.25648 759.82715,668.27453 C 760.51453,645.84096 778.98388,625.64611 802.81524,627.12099 C 821.40794,628.27165 838.25244,644.16048 835.95824,664.36097 C 835.58624,667.63633 834.63164,670.70621 833.26774,673.59453 C 846.58954,669.98151 860.13434,665.96896 874.05434,661.1812 C 932.29054,641.15095 983.61054,609.09601 1034.9384,575.75549 C 1030.9479,573.75733 1028.7188,569.39806 1029.4349,564.99319 C 1036.2665,523.37539 1053.8466,482.65461 1087.6491,460.73347 C 1120.6708,439.31866 1167.8525,438.6371 1227.4978,470.57852 C 1236.5503,467.42628 1245.8258,464.6081 1255.2596,462.0176 C 1234.3552,430.7052 1225.6846,391.35964 1236.6702,352.25443 C 1251.0197,301.17497 1298.3158,263.11676 1350.8972,264.19928 C 1360.5993,264.39903 1370.5319,265.93182 1380.3713,269.03009 C 1428.1455,284.07325 1461.7748,336.33521 1443.1717,386.31464 C 1436.6584,403.81356 1423.5283,418.45942 1407.1548,426.91785 C 1390.7813,435.37627 1370.5938,437.40108 1352.0591,428.32429 C 1340.8661,422.84283 1331.643,412.99419 1326.8044,401.05165 C 1321.9659,389.1091 1322.3403,373.79234 1332.3691,362.22178 C 1337.9057,355.83377 1344.6727,353.61809 1352.3649,352.92707 C 1356.211,352.58156 1360.4432,352.76877 1364.8393,355.0673 C 1368.1364,356.7912 1371.1188,360.25492 1372.6664,364.17857 C 1373.6091,365.42154 1374.3699,366.7459 1374.929,368.15327 C 1376.0424,370.94458 1375.854,374.06255 1374.4398,376.71418 C 1373.0257,379.3658 1370.5294,381.28146 1367.591,381.91188 L 1365.5731,382.33994 C 1364.4071,382.58752 1363.2068,382.6289 1362.0264,382.46223 C 1362.4666,383.57315 1363.2959,384.56577 1364.8393,385.76429 C 1367.6381,387.9376 1372.4733,389.40794 1375.6016,389.18867 C 1382.8477,388.68076 1388.1881,384.85457 1392.0509,378.79327 C 1395.9135,372.73196 1397.6741,364.48143 1396.4536,357.32983 C 1392.6247,334.89573 1367.7866,322.27779 1345.883,327.18317 C 1315.7657,333.9281 1299.3715,367.16772 1306.9309,396.58775 C 1314.976,427.89806 1346.2769,448.55311 1378.4757,446.97485 C 1381.833,446.81029 1384.9737,447.21352 1388.015,447.95323 C 1500.427,454.11758 1639.423,503.65618 1826.3951,628.58857 C 1826.5771,628.71028 1826.7631,628.77247 1826.9454,628.89432 C 1828.5736,629.80835 1901.9743,670.77953 1959.6396,661.7927 C 2001.4949,653.42349 2035.7328,664.49136 2059.0073,686.00786 C 2082.282,707.52437 2094.2882,738.81502 2094.1682,770.51634 C 2094.0484,802.21765 2081.6346,834.69189 2055.4607,858.14343 C 2029.2868,881.59496 1989.7289,895.46006 1937.1977,891.59215 C 1937.0144,891.5971 1936.8309,891.5971 1936.6474,891.59215 C 1856.8368,881.31761 1811.2645,821.25159 1810.1293,819.74161 C 1810.1293,819.74161 1810.0075,819.61993 1810.007,819.6193 C 1809.9993,819.60895 1809.7012,819.25241 1809.7012,819.25241 C 1809.0973,818.54801 1784.993,790.45574 1742.7426,751.98806 L 1742.8038,751.92691 C 1740.564,750.36384 1738.3207,748.68934 1736.2608,746.36232 C 1735.9706,746.03456 1735.6366,745.64591 1735.2825,745.26164 C 1735.2409,745.21657 1735.2029,745.18571 1735.1602,745.13934 C 1731.0694,741.48701 1726.8324,737.80685 1722.4411,734.01014 C 1698.7248,717.37283 1666.8244,714.06481 1641.2958,728.75129 C 1612.1564,745.51502 1598.5476,784.20298 1616.5303,813.32092 C 1629.6458,834.558 1658.9869,844.50931 1679.8811,830.07585 C 1686.582,825.44695 1691.8126,817.64801 1693.6397,809.77425 C 1695.4667,801.9005 1694.3219,794.47017 1688.9923,788.18851 C 1686.6106,785.38127 1681.6249,782.57264 1677.5574,782.01242 C 1674.6477,781.61167 1672.8117,782.146 1671.1978,783.35771 C 1672.5975,784.20787 1673.7721,785.38239 1674.6222,786.78208 L 1675.7841,788.67771 C 1677.3369,791.218 1677.6792,794.28371 1676.7624,797.11633 C 1675.8456,799.94895 1673.7612,802.26599 1671.0145,803.41471 C 1669.5039,804.04525 1667.8661,804.45738 1666.2447,804.6377 C 1662.1906,806.38076 1657.479,806.70307 1653.7702,805.4938 C 1648.8765,803.89812 1645.595,800.83667 1643.008,797.66667 C 1637.8338,791.32668 1634.5116,784.42095 1635.2421,775.65289 C 1636.5975,759.37886 1647.9713,747.73226 1660.7413,742.50991 C 1673.5113,737.28755 1687.9924,737.00247 1700.5496,741.47036 C 1721.4582,748.90995 1735.0944,765.96011 1740.9081,784.94759 C 1746.7219,803.93508 1745.3362,825.08888 1736.75,843.28413 C 1712.1821,895.34693 1646.3744,908.79097 1598.6747,883.21468 C 1535.943,849.57848 1520.3697,767.9781 1554.4025,709.00003 C 1569.0516,683.61353 1590.5428,664.93507 1615.0016,653.04834 C 1614.339,652.62035 1613.7104,652.19216 1613.0447,651.7642 C 1612.982,651.72388 1612.9241,651.68221 1612.8614,651.6419 C 1609.8796,650.50327 1606.8727,649.3355 1603.6277,647.42259 C 1571.8139,628.66812 1548.8678,623.99299 1534.2843,623.63547 C 1526.9926,623.45672 1521.7585,624.38546 1518.5077,625.22535 C 1515.2571,626.06525 1514.5942,626.50949 1514.5942,626.50949 C 1473.1127,652.25431 1441.3038,662.43241 1410.7625,656.35041 C 1380.0788,650.24002 1353.325,629.04869 1318.9772,597.28009 C 1301.733,581.33053 1285.6262,567.56912 1270.4246,555.51504 C 1214.9189,562.59351 1158.4393,582.54566 1102.3249,620.76145 C 1074.5158,639.70057 1047.4345,655.69253 1020.9351,669.80327 C 1021.4436,669.78781 1021.9583,669.67542 1022.4638,669.68097 C 1032.7522,669.79399 1042.7618,673.71623 1050.4091,680.81016 C 1071.7729,700.62802 1068.3298,733.98199 1048.9416,752.84416 C 1023.7903,777.31305 983.51434,772.51041 961.06994,747.9522 C 949.98204,735.82022 944.42834,720.78607 943.51994,705.63682 C 794.03034,763.99147 670.39118,750.42606 583.83918,720.98532 C 539.13499,705.77916 511.61203,682.91856 487.8317,667.3538 C 464.05138,651.78902 449.83638,635.80711 449.83638,635.80711 L 450.59463,635.74305 L 450.65578,635.6819 C 467.29481,650.44014 658.87438,811.77958 952.81474,688.94303 C 949.81434,706.63242 954.04694,725.3392 967.00134,739.51358 C 985.78204,760.0628 1019.5783,764.09643 1040.2583,743.9775 C 1055.7741,728.88277 1058.5593,702.18672 1041.9093,686.74166 C 1030.564,676.21719 1010.7006,674.50602 1000.6335,687.78119 C 995.00564,695.20265 994.38314,708.94334 1004.4859,713.09705 C 1007.9206,714.50914 1016.3131,712.50712 1014.5144,707.77704 C 1014.7064,707.38368 1014.8772,706.88971 1014.8202,706.24832 L 1013.8417,706.49291 C 1014.1545,706.93659 1014.3608,707.37272 1014.5144,707.77704 C 1013.4272,710.00619 1008.9663,708.55174 1007.6658,706.85981 C 1003.5192,701.46561 1008.185,694.3026 1013.536,692.06166 C 1023.1076,688.05307 1033.2743,695.13758 1036.1002,704.35269 C 1040.2474,717.87627 1030.4031,731.39583 1017.3273,734.68279 C 999.89934,739.06382 982.93184,726.36756 979.23124,709.42809 C 975.34954,691.65996 985.70774,673.68695 1002.04,666.44005 C 1003.2253,665.91412 1004.1814,665.30381 1004.9139,664.66672 C 1034.0764,649.65557 1064.1094,631.82291 1094.987,610.7941 C 1153.7777,570.75558 1213.3717,550.00803 1271.77,543.22401 C 1288.1605,556.05669 1305.6353,570.96925 1324.2973,588.22996 C 1392.3625,651.18426 1426.5239,666.84258 1508.1736,615.9918 C 1508.1736,615.9918 1541.1532,598.1323 1607.2356,637.08834 C 1610.8657,639.22833 1614.002,640.67629 1616.7749,641.55224 C 1622.9824,645.54143 1629.0724,649.53881 1635.0586,653.59868 C 1605.1375,663.48017 1578.6076,683.2105 1561.6792,712.5467 C 1530.3578,766.82616 1544.6751,842.0051 1601.9156,872.69698 C 1644.8617,895.72438 1704.1087,883.6491 1725.9265,837.41379 C 1740.7935,805.90849 1730.8704,762.11481 1695.5354,749.54209 C 1675.7813,742.51347 1645.844,750.47463 1643.8029,774.98024 C 1643.1108,783.29023 1653.1154,799.89952 1662.0255,792.95816 C 1663.0136,793.11895 1664.1443,793.0394 1665.5109,792.46897 L 1664.3491,790.57334 C 1663.5881,791.57437 1662.8113,792.34596 1662.0255,792.95816 C 1656.5658,792.06973 1656.5994,781.53644 1659.3348,777.60967 C 1668.0899,765.04251 1686.7198,770.09751 1695.1684,780.05564 C 1710.2813,797.86824 1701.9528,824.59221 1684.1004,836.92458 C 1657.901,855.02283 1622.2053,842.99691 1606.2571,817.17333 C 1585.0008,782.75443 1600.7973,737.81995 1634.6306,718.3559 C 1664.0065,701.45606 1700.2769,705.40574 1727.0272,724.34854 C 1731.9001,728.55692 1736.5693,732.65457 1741.0916,736.70072 C 1741.5073,737.15099 1741.9077,737.58633 1742.3146,738.04601 C 1744.2291,740.20866 1746.1549,741.80088 1748.0015,742.93795 C 1791.1964,782.26556 1816.3053,811.60873 1816.3054,811.60873 C 1816.3053,811.60873 1860.1235,870.10051 1936.3417,879.91261 C 2137.9596,894.75791 2116.4215,639.00414 1959.6396,670.35362 C 1895.5634,680.33953 1819.6685,635.86535 1819.6687,635.86535 C 1633.094,511.1143 1495.5079,462.50744 1385.4468,456.5753 C 1383.2674,455.82925 1380.6185,455.49907 1377.375,455.65807 C 1340.5347,457.46382 1304.7781,433.9899 1295.4348,397.62728 C 1286.5272,362.96054 1305.8925,323.79406 1342.0918,315.68708 C 1369.2512,309.60462 1399.9796,325.30537 1404.8922,354.08891 C 1408.2397,373.70233 1396.1143,396.31289 1374.7456,397.81073 C 1362.7995,398.64811 1347.5281,389.65346 1350.1635,375.8581 C 1350.9878,371.54327 1357.8861,364.75123 1361.9654,367.78637 C 1362.0663,368.69243 1362.0117,369.70608 1361.8431,370.84384 L 1363.8609,370.4158 C 1363.3623,369.16068 1362.6988,368.33212 1361.9654,367.78637 C 1360.8173,357.4851 1343.4933,361.57878 1338.484,367.35833 C 1323.7148,384.39811 1337.6657,409.16689 1354.9331,417.62313 C 1385.8206,432.74937 1420.8989,411.17806 1432.0425,381.23924 C 1448.3963,337.30281 1418.3466,290.64514 1375.724,277.2241 C 1366.8475,274.42908 1357.9118,273.06343 1349.124,272.8825 C 1301.6697,271.90552 1258.0391,306.79682 1244.9254,353.47741 C 1233.3964,394.51717 1245.2002,435.85391 1270.7916,466.48151 C 1255.0405,470.18687 1239.8397,474.76588 1225.1129,480.05668 C 1105.6691,413.62704 1051.0208,485.39474 1037.9346,565.11549 C 1058.4839,501.0861 1099.9109,450.09557 1192.8872,492.9592 C 1081.0729,542.56245 993.10984,628.95392 875.76654,669.31408 C 855.32574,676.34467 835.48314,682.10239 816.26814,686.68051 C 815.57234,686.60823 814.77644,686.69917 813.82204,686.98625 C 803.35214,690.13595 791.40564,685.95712 786.12144,676.16281 C 781.08392,666.82523 783.86834,654.17379 793.70384,649.25707 C 801.08334,645.56814 811.02654,647.86982 814.49474,655.80005 C 816.85824,661.20379 814.97094,668.58054 808.93014,670.53707 C 805.55314,671.63086 800.53474,670.16905 800.30814,666.01201 C 800.23704,664.71022 801.72914,662.24217 803.12104,662.83224 C 803.21764,663.08912 803.27124,663.34212 803.30444,663.68833 L 803.85474,663.44374 C 803.62334,663.12044 803.36924,662.9375 803.12104,662.83224 C 802.04434,659.9744 797.36034,662.34416 796.33334,664.36097 C 793.30064,670.31769 799.07824,676.49153 804.64974,677.69155 C 814.61574,679.83813 823.14894,671.07931 824.21754,661.6704 C 825.78564,647.86248 813.83464,636.62242 800.61384,635.8042 C 782.99274,634.71367 768.97087,650.02505 768.44928,667.05155 C 768.12298,677.70235 772.56589,687.22805 779.70065,694.14073 C 587.4785,727.18068 466.20685,646.48913 450.77808,635.49846 M 1134.0003,488.7399 C 1118.5029,488.47839 1105.9012,492.44454 1095.2317,499.13529 C 1074.9626,511.8457 1060.7755,536.42823 1050.8983,565.29895 C 1088.8974,540.54747 1127.5688,516.09204 1169.2224,495.52747 C 1156.0556,491.15006 1144.3093,488.91384 1134.0003,488.7399 z M 1314.5133,540.65574 C 1368.6107,540.39663 1421.2217,551.27698 1470.8113,568.7233 C 1460.6427,587.85051 1419.9679,646.45692 1333.6531,563.89251 C 1325.0428,555.65632 1316.6378,547.97403 1308.4596,540.77804 C 1310.4751,540.73755 1312.5019,540.66536 1314.5133,540.65574 z M 1336.6495,552.88562 C 1338.5494,554.66883 1340.3549,556.18533 1342.2752,558.02216 C 1383.9826,597.91734 1411.368,601.63613 1429.4131,596.17939 C 1441.4934,592.52638 1450.3869,583.86097 1456.4412,575.93893 C 1417.8473,563.38259 1377.7413,554.84723 1336.6495,552.88562 z M 1026.4997,706.37061 C 1026.524,706.53316 1026.5444,706.69628 1026.5609,706.85981 C 1026.7,708.42693 1026.5152,709.93223 1026.1939,711.20141 C 1026.0293,713.81145 1025.4109,716.40106 1024.1149,718.23359 C 1021.862,721.41925 1019.2077,722.79515 1016.8381,723.73705 C 1012.4722,725.47238 1008.7377,726.26577 1003.5075,724.47084 C 1007.518,726.42441 1011.9169,727.43479 1016.4101,726.30532 C 1024.2444,724.33595 1030.1675,716.25161 1027.9061,708.87774 C 1027.6448,708.02531 1027.0825,707.18999 1026.4997,706.37061 z " style="opacity: 0.0334728; fill: rgb(212, 181, 0); fill-opacity: 0.933054; fill-rule: evenodd; stroke: none; stroke-width: 1px; stroke-linecap: butt; stroke-linejoin: miter; stroke-opacity: 1;"/>
    <g transform="matrix(1.35104, 0, 0, 1.35104, -1912.75, -19.7008)" id="g5822" style="opacity: 0.435146; filter: url(&quot;#filter5866&quot;);">
      <g id="g5824" transform="translate(51.3157, -37.6315)" style="opacity: 0.309623;">
        <path transform="matrix(0.3125, 0, 0, 0.3125, 749.21, 358.709)" d="M 848.42028 504.34259 A 27.368397 27.368397 0 1 1  793.68348,504.34259 A 27.368397 27.368397 0 1 1  848.42028 504.34259 z" sodipodi:ry="27.368397" sodipodi:rx="27.368397" sodipodi:cy="504.34259" sodipodi:cx="821.05188" id="path5826" style="opacity: 1; fill: rgb(255, 255, 255); fill-opacity: 1; fill-rule: nonzero; stroke: none; stroke-width: 135.5; stroke-linecap: round; stroke-linejoin: round; stroke-miterlimit: 4; stroke-dasharray: none; stroke-opacity: 1; filter: url(&quot;#filter4299&quot;);" sodipodi:type="arc"/>
        <path sodipodi:type="arc" style="opacity: 1; fill: rgb(255, 255, 255); fill-opacity: 1; fill-rule: nonzero; stroke: none; stroke-width: 135.5; stroke-linecap: round; stroke-linejoin: round; stroke-miterlimit: 4; stroke-dasharray: none; stroke-opacity: 1;" id="path5828" sodipodi:cx="821.05188" sodipodi:cy="504.34259" sodipodi:rx="27.368397" sodipodi:ry="27.368397" d="M 848.42028 504.34259 A 27.368397 27.368397 0 1 1  793.68348,504.34259 A 27.368397 27.368397 0 1 1  848.42028 504.34259 z" transform="matrix(0.1875, 0, 0, -0.1875, 851.841, 610.88)"/>
      </g>
      <g transform="matrix(1.08312, 0.284377, -0.646432, 1.2323, 161.212, -216.095)" id="g5830">
        <path sodipodi:type="arc" style="opacity: 1; fill: rgb(255, 255, 255); fill-opacity: 1; fill-rule: nonzero; stroke: none; stroke-width: 135.5; stroke-linecap: round; stroke-linejoin: round; stroke-miterlimit: 4; stroke-dasharray: none; stroke-opacity: 1; filter: url(&quot;#filter4299&quot;);" id="path5832" sodipodi:cx="821.05188" sodipodi:cy="504.34259" sodipodi:rx="27.368397" sodipodi:ry="27.368397" d="M 848.42028 504.34259 A 27.368397 27.368397 0 1 1  793.68348,504.34259 A 27.368397 27.368397 0 1 1  848.42028 504.34259 z" transform="matrix(0.3125, 0, 0, 0.3125, 749.21, 358.709)"/>
        <path transform="matrix(0.1875, 0, 0, -0.1875, 851.841, 610.88)" d="M 848.42028 504.34259 A 27.368397 27.368397 0 1 1  793.68348,504.34259 A 27.368397 27.368397 0 1 1  848.42028 504.34259 z" sodipodi:ry="27.368397" sodipodi:rx="27.368397" sodipodi:cy="504.34259" sodipodi:cx="821.05188" id="path5834" style="opacity: 1; fill: rgb(255, 255, 255); fill-opacity: 1; fill-rule: nonzero; stroke: none; stroke-width: 135.5; stroke-linecap: round; stroke-linejoin: round; stroke-miterlimit: 4; stroke-dasharray: none; stroke-opacity: 1;" sodipodi:type="arc"/>
      </g>
      <g id="g5836" transform="matrix(0.769918, 0.53206, -0.399575, 0.631796, 572.852, -324.504)">
        <path transform="matrix(0.3125, 0, 0, 0.3125, 749.21, 358.709)" d="M 848.42028 504.34259 A 27.368397 27.368397 0 1 1  793.68348,504.34259 A 27.368397 27.368397 0 1 1  848.42028 504.34259 z" sodipodi:ry="27.368397" sodipodi:rx="27.368397" sodipodi:cy="504.34259" sodipodi:cx="821.05188" id="path5838" style="opacity: 1; fill: rgb(255, 255, 255); fill-opacity: 1; fill-rule: nonzero; stroke: none; stroke-width: 135.5; stroke-linecap: round; stroke-linejoin: round; stroke-miterlimit: 4; stroke-dasharray: none; stroke-opacity: 1; filter: url(&quot;#filter4299&quot;);" sodipodi:type="arc"/>
        <path sodipodi:type="arc" style="opacity: 1; fill: rgb(255, 255, 255); fill-opacity: 1; fill-rule: nonzero; stroke: none; stroke-width: 135.5; stroke-linecap: round; stroke-linejoin: round; stroke-miterlimit: 4; stroke-dasharray: none; stroke-opacity: 1;" id="path5840" sodipodi:cx="821.05188" sodipodi:cy="504.34259" sodipodi:rx="27.368397" sodipodi:ry="27.368397" d="M 848.42028 504.34259 A 27.368397 27.368397 0 1 1  793.68348,504.34259 A 27.368397 27.368397 0 1 1  848.42028 504.34259 z" transform="matrix(0.1875, 0, 0, -0.1875, 851.841, 610.88)"/>
      </g>
      <g id="g5842" transform="matrix(0.771757, -0.811429, 0.76737, 1.16085, 132.701, 863.075)" style="opacity: 0.719665;">
        <path transform="matrix(0.3125, 0, 0, 0.3125, 749.21, 358.709)" d="M 848.42028 504.34259 A 27.368397 27.368397 0 1 1  793.68348,504.34259 A 27.368397 27.368397 0 1 1  848.42028 504.34259 z" sodipodi:ry="27.368397" sodipodi:rx="27.368397" sodipodi:cy="504.34259" sodipodi:cx="821.05188" id="path5844" style="opacity: 1; fill: rgb(255, 255, 255); fill-opacity: 1; fill-rule: nonzero; stroke: none; stroke-width: 135.5; stroke-linecap: round; stroke-linejoin: round; stroke-miterlimit: 4; stroke-dasharray: none; stroke-opacity: 1; filter: url(&quot;#filter4299&quot;);" sodipodi:type="arc"/>
        <path sodipodi:type="arc" style="opacity: 1; fill: rgb(255, 255, 255); fill-opacity: 1; fill-rule: nonzero; stroke: none; stroke-width: 135.5; stroke-linecap: round; stroke-linejoin: round; stroke-miterlimit: 4; stroke-dasharray: none; stroke-opacity: 1;" id="path5846" sodipodi:cx="821.05188" sodipodi:cy="504.34259" sodipodi:rx="27.368397" sodipodi:ry="27.368397" d="M 848.42028 504.34259 A 27.368397 27.368397 0 1 1  793.68348,504.34259 A 27.368397 27.368397 0 1 1  848.42028 504.34259 z" transform="matrix(0.1875, 0, 0, -0.1875, 851.841, 610.88)"/>
      </g>
      <g transform="matrix(0.397024, 0.274368, -0.206049, 0.325798, 1251.67, 15.698)" id="g5848" style="opacity: 0.447699;">
        <path sodipodi:type="arc" style="opacity: 1; fill: rgb(255, 255, 255); fill-opacity: 1; fill-rule: nonzero; stroke: none; stroke-width: 135.5; stroke-linecap: round; stroke-linejoin: round; stroke-miterlimit: 4; stroke-dasharray: none; stroke-opacity: 1; filter: url(&quot;#filter4299&quot;);" id="path5850" sodipodi:cx="821.05188" sodipodi:cy="504.34259" sodipodi:rx="27.368397" sodipodi:ry="27.368397" d="M 848.42028 504.34259 A 27.368397 27.368397 0 1 1  793.68348,504.34259 A 27.368397 27.368397 0 1 1  848.42028 504.34259 z" transform="matrix(0.3125, 0, 0, 0.3125, 749.21, 358.709)"/>
        <path transform="matrix(0.1875, 0, 0, -0.1875, 851.841, 610.88)" d="M 848.42028 504.34259 A 27.368397 27.368397 0 1 1  793.68348,504.34259 A 27.368397 27.368397 0 1 1  848.42028 504.34259 z" sodipodi:ry="27.368397" sodipodi:rx="27.368397" sodipodi:cy="504.34259" sodipodi:cx="821.05188" id="path5852" style="opacity: 1; fill: rgb(255, 255, 255); fill-opacity: 1; fill-rule: nonzero; stroke: none; stroke-width: 135.5; stroke-linecap: round; stroke-linejoin: round; stroke-miterlimit: 4; stroke-dasharray: none; stroke-opacity: 1;" sodipodi:type="arc"/>
      </g>
      <g style="opacity: 0.447699;" id="g5854" transform="matrix(0.397024, 0.274368, -0.206049, 0.325798, 1239.69, -37.3282)">
        <path transform="matrix(0.3125, 0, 0, 0.3125, 749.21, 358.709)" d="M 848.42028 504.34259 A 27.368397 27.368397 0 1 1  793.68348,504.34259 A 27.368397 27.368397 0 1 1  848.42028 504.34259 z" sodipodi:ry="27.368397" sodipodi:rx="27.368397" sodipodi:cy="504.34259" sodipodi:cx="821.05188" id="path5856" style="opacity: 1; fill: rgb(255, 255, 255); fill-opacity: 1; fill-rule: nonzero; stroke: none; stroke-width: 135.5; stroke-linecap: round; stroke-linejoin: round; stroke-miterlimit: 4; stroke-dasharray: none; stroke-opacity: 1; filter: url(&quot;#filter4299&quot;);" sodipodi:type="arc"/>
        <path sodipodi:type="arc" style="opacity: 1; fill: rgb(255, 255, 255); fill-opacity: 1; fill-rule: nonzero; stroke: none; stroke-width: 135.5; stroke-linecap: round; stroke-linejoin: round; stroke-miterlimit: 4; stroke-dasharray: none; stroke-opacity: 1;" id="path5858" sodipodi:cx="821.05188" sodipodi:cy="504.34259" sodipodi:rx="27.368397" sodipodi:ry="27.368397" d="M 848.42028 504.34259 A 27.368397 27.368397 0 1 1  793.68348,504.34259 A 27.368397 27.368397 0 1 1  848.42028 504.34259 z" transform="matrix(0.1875, 0, 0, -0.1875, 851.841, 610.88)"/>
      </g>
    </g>
  </g>
  <g inkscape:groupmode="layer" id="layer3" inkscape:label="fg">
    <path style="opacity: 0.192469; fill: url(&quot;#linearGradient4945&quot;) rgb(0, 0, 0); fill-opacity: 1; fill-rule: nonzero; stroke: none; stroke-width: 135.5; stroke-linecap: round; stroke-linejoin: round; stroke-miterlimit: 4; stroke-dasharray: none; stroke-opacity: 1; filter: url(&quot;#filter4951&quot;);" d="M -135.58312,51.276616 C -175.4467,53.065256 -209.63954,76.171706 -243.12121,95.583686 C -322.92598,144.58879 -393.9323,205.93516 -467.68516,263.48184 C -486.22469,278.23219 -504.99087,292.92922 -522.70812,308.52662 C -459.767,263.98023 -397.2677,219.08438 -335.97457,172.34844 C -285.10309,134.42444 -233.70081,96.401136 -177.20812,67.276616 C -156.69339,57.185986 -131.82711,47.985206 -109.27062,57.401616 C -94.918631,63.241366 -84.767261,76.846216 -82.357411,92.046586 C -69.563441,139.3577 -78.707101,188.80021 -83.683641,236.59192 C -90.658271,293.30356 -99.231981,351.00829 -93.239371,408.24537 C -89.288261,433.40602 -74.036191,458.35676 -49.614371,468.24537 C -33.313801,476.49964 -14.465441,477.06104 3.3543791,474.30787 C 65.593799,467.17346 122.00187,437.62218 177.48023,410.18127 C 283.26493,355.94044 382.66833,290.31691 486.38563,232.33912 C 547.11643,199.67296 610.83283,171.04805 678.05323,154.67201 C 733.77483,143.44191 794.37133,148.57349 844.60183,176.34863 C 871.70293,193.39103 889.92033,222.24842 897.91693,252.80787 C 900.22783,252.93798 902.57033,251.94293 900.52203,249.38554 C 890.17613,214.02091 867.71473,180.5836 833.72933,164.68287 C 805.10383,151.15774 773.50183,144.01534 742.01193,141.7573 C 695.75333,138.83657 649.95103,149.3581 606.84733,165.05467 C 525.60743,192.56754 450.36093,234.07371 377.38683,278.63653 C 281.57613,335.17386 187.56003,395.38718 86.753069,442.68276 C 51.253179,458.52328 13.451959,471.65135 -25.739371,472.96412 C -50.971611,470.63481 -76.259611,454.5963 -83.739371,429.46412 C -94.720261,397.5185 -88.458121,363.13705 -87.096531,330.19046 C -81.545231,262.59116 -66.814101,195.11859 -72.675901,127.03434 C -75.260621,106.85154 -79.377861,85.696286 -91.790231,69.132006 C -103.22867,57.723146 -119.31251,50.799156 -135.58312,51.276616 z M 894.97933,253.21412 C 897.00483,252.65522 896.69253,252.70125 894.97933,253.21412 z " id="path4811" transform="matrix(-1.70513, 0, 0, 0.871043, 1046.55, 409.894)"/>
    <path id="path4955" d="M 1277.7372,454.55851 C 1345.7099,456.1165 1404.0131,476.24322 1461.1037,493.15189 C 1597.1813,535.83746 1718.2563,589.27282 1844.0145,639.39848 C 1875.6268,652.24666 1907.6256,665.04842 1937.8357,678.63443 C 1830.513,639.8326 1723.9436,600.72636 1619.4308,560.01732 C 1532.6883,526.98388 1445.0407,493.86394 1348.7133,468.49521 C 1313.733,459.70584 1271.3328,451.69155 1232.871,459.89366 C 1208.3991,464.98033 1191.0896,476.83075 1186.9806,490.07093 C 1165.1651,531.28096 1180.7563,574.34753 1189.2419,615.97618 C 1201.1346,665.37448 1215.7538,715.63781 1205.5356,765.49378 C 1198.7986,787.40981 1172.7918,809.14299 1131.1494,817.75639 C 1103.3548,824.94622 1071.2158,825.43522 1040.8308,823.03709 C 934.70454,816.82272 838.52134,791.08226 743.92353,767.18004 C 563.54682,719.93392 394.05109,662.77298 217.19959,612.27181 C 113.64567,583.81817 5.0009078,558.88463 -109.61862,544.62038 C -204.63121,534.83849 -307.95612,539.30831 -393.60567,563.50166 C -439.81657,578.34633 -470.8796,603.48238 -484.51485,630.10098 C -488.45523,630.21432 -492.4495,629.34758 -488.95688,627.11998 C -471.31578,596.31585 -433.01617,567.19051 -375.06663,553.34029 C -326.25644,541.55931 -272.37092,535.33797 -218.67653,533.37112 C -139.7996,530.82704 -61.700722,539.99174 11.796708,553.66414 C 150.32132,577.62904 278.62639,613.78271 403.05673,652.59886 C 566.42644,701.84533 726.73611,754.29374 898.62524,795.49025 C 959.15714,809.28802 1023.6131,820.72315 1090.4394,821.86663 C 1133.4636,819.8377 1176.583,805.86746 1189.337,783.97624 C 1208.0608,756.15022 1197.383,726.20248 1195.0613,697.50458 C 1185.5956,638.62266 1160.4771,579.85112 1170.4723,520.54679 C 1174.8796,502.96668 1181.9001,484.53955 1203.0647,470.11133 C 1222.5687,460.17373 1249.9938,454.14263 1277.7372,454.55851 z M -479.50586,630.45484 C -482.9596,629.96802 -482.42708,630.00811 -479.50586,630.45484 z " style="opacity: 0.192469; fill: url(&quot;#linearGradient5873&quot;) rgb(0, 0, 0); fill-opacity: 1; fill-rule: nonzero; stroke: none; stroke-width: 135.5; stroke-linecap: round; stroke-linejoin: round; stroke-miterlimit: 4; stroke-dasharray: none; stroke-opacity: 1;"/>
    <path style="opacity: 0.192469; fill: url(&quot;#linearGradient4963&quot;) rgb(0, 0, 0); fill-opacity: 1; fill-rule: nonzero; stroke: none; stroke-width: 135.5; stroke-linecap: round; stroke-linejoin: round; stroke-miterlimit: 4; stroke-dasharray: none; stroke-opacity: 1;" d="M 1366.1152,718.16318 C 1401.7245,717.34699 1432.2681,706.80307 1462.1766,697.94501 C 1533.4644,675.58303 1596.8928,647.58949 1662.7747,621.32984 C 1679.3356,614.59896 1696.099,607.89241 1711.9254,600.77502 C 1655.7016,621.1024 1599.8722,641.58924 1545.1204,662.91576 C 1499.6781,680.22122 1453.7614,697.57199 1403.2978,710.86206 C 1384.9724,715.46663 1362.76,719.66513 1342.6107,715.36822 C 1329.7904,712.70343 1320.7224,706.49528 1318.5698,699.55905 C 1307.1411,677.97007 1315.309,655.4085 1319.7544,633.60022 C 1325.9848,607.72159 1333.6434,581.38982 1328.2903,555.27141 C 1324.761,543.79013 1311.1366,532.40461 1289.3211,527.89225 C 1274.7602,524.12568 1257.9235,523.8695 1242.0054,525.12582 C 1186.4081,528.38139 1136.0201,541.86622 1086.4625,554.38804 C 991.96744,579.13916 903.17254,609.08446 810.52414,635.54086 C 756.27454,650.44704 699.35811,663.50915 639.31156,670.98184 C 589.53668,676.10637 535.40716,673.76473 490.53735,661.0904 C 466.32854,653.31361 450.05533,640.14544 442.91216,626.20057 C 440.84787,626.14118 438.75537,626.59525 440.58506,627.76224 C 449.82684,643.89979 469.89111,659.15789 500.24952,666.4137 C 525.82006,672.58548 554.04943,675.8447 582.17866,676.87509 C 623.50046,678.20787 664.41465,673.4067 702.91821,666.24405 C 775.4881,653.68939 842.70414,634.74932 907.89024,614.41445 C 993.47594,588.61537 1077.4585,561.13886 1167.5071,539.55697 C 1199.2182,532.32863 1232.9853,526.33805 1267.9941,525.739 C 1290.5336,526.8019 1313.1227,534.1206 1319.8043,545.5889 C 1329.6133,560.1663 1324.0194,575.85522 1322.8031,590.88939 C 1317.8443,621.73626 1304.6854,652.5253 1309.9216,683.59346 C 1312.2305,692.80326 1315.9083,702.45682 1326.996,710.01542 C 1337.2136,715.22149 1351.5809,718.38104 1366.1152,718.16318 z M 445.53625,626.01518 C 443.72691,626.27021 444.00588,626.24921 445.53625,626.01518 z " id="path4961"/>
    <path transform="matrix(0.289625, 0, 0, 0.289625, 1048.21, 185.68)" d="M 1546.3144 733.55292 A 473.81537 473.81537 0 1 1  598.68365,733.55292 A 473.81537 473.81537 0 1 1  1546.3144 733.55292 z" sodipodi:ry="473.81537" sodipodi:rx="473.81537" sodipodi:cy="733.55292" sodipodi:cx="1072.499" id="path4996" style="opacity: 0.112971; fill: rgb(255, 215, 215); fill-opacity: 0.933054; fill-rule: nonzero; stroke: none; stroke-width: 135.5; stroke-linecap: round; stroke-linejoin: round; stroke-miterlimit: 4; stroke-dasharray: none; stroke-opacity: 1; filter: url(&quot;#filter4992&quot;);" sodipodi:type="arc"/>
    <g id="g5050" transform="matrix(1.5137, 0, 0, 1.5137, -847.193, -261.72)">
      <path id="path4965" d="M 1512.0918,379.46055 C 1462.0487,379.46055 1421.4355,420.07367 1421.4356,470.1168 C 1421.4356,520.15993 1462.0486,560.80428 1512.0918,560.8043 C 1562.1349,560.8043 1602.748,520.15993 1602.748,470.1168 C 1602.748,420.07367 1562.1349,379.46055 1512.0918,379.46055 z M 1512.0918,399.9918 C 1550.8044,399.99179 1582.248,431.40419 1582.248,470.1168 C 1582.248,508.82942 1550.8044,540.27305 1512.0918,540.27305 C 1473.3792,540.27304 1441.9668,508.82941 1441.9668,470.1168 C 1441.9667,431.40419 1473.3792,399.9918 1512.0918,399.9918 z " style="opacity: 0.112971; fill: rgb(255, 215, 215); fill-opacity: 0.933054; fill-rule: nonzero; stroke: none; stroke-width: 135.5; stroke-linecap: round; stroke-linejoin: round; stroke-miterlimit: 4; stroke-opacity: 1;"/>
      <path style="opacity: 0.112971; fill: rgb(255, 215, 215); fill-opacity: 0.933054; fill-rule: nonzero; stroke: none; stroke-width: 135.5; stroke-linecap: round; stroke-linejoin: round; stroke-miterlimit: 4; stroke-opacity: 1;" d="M 1512.0918,427.36353 C 1488.487,427.36353 1469.3302,446.52028 1469.3303,470.12505 C 1469.3303,493.72983 1488.487,512.90132 1512.0918,512.90132 C 1535.6966,512.90132 1554.8533,493.72983 1554.8533,470.12505 C 1554.8533,446.52028 1535.6966,427.36353 1512.0918,427.36353 z M 1512.0918,437.04788 C 1530.3521,437.04788 1545.1837,451.86475 1545.1837,470.12505 C 1545.1837,488.38536 1530.3521,503.21697 1512.0918,503.21697 C 1493.8315,503.21696 1479.0146,488.38536 1479.0146,470.12505 C 1479.0146,451.86475 1493.8315,437.04788 1512.0918,437.04788 z " id="path5048"/>
    </g>
    <g id="g5054" transform="matrix(1.5137, 0, 0, 1.5137, -699.607, 25.6843)">
      <path style="opacity: 0.112971; fill: rgb(255, 215, 215); fill-opacity: 0.933054; fill-rule: nonzero; stroke: none; stroke-width: 135.5; stroke-linecap: round; stroke-linejoin: round; stroke-miterlimit: 4; stroke-opacity: 1;" d="M 1512.0918,379.46055 C 1462.0487,379.46055 1421.4355,420.07367 1421.4356,470.1168 C 1421.4356,520.15993 1462.0486,560.80428 1512.0918,560.8043 C 1562.1349,560.8043 1602.748,520.15993 1602.748,470.1168 C 1602.748,420.07367 1562.1349,379.46055 1512.0918,379.46055 z M 1512.0918,399.9918 C 1550.8044,399.99179 1582.248,431.40419 1582.248,470.1168 C 1582.248,508.82942 1550.8044,540.27305 1512.0918,540.27305 C 1473.3792,540.27304 1441.9668,508.82941 1441.9668,470.1168 C 1441.9667,431.40419 1473.3792,399.9918 1512.0918,399.9918 z " id="path5056"/>
      <path id="path5058" d="M 1512.0918,427.36353 C 1488.487,427.36353 1469.3302,446.52028 1469.3303,470.12505 C 1469.3303,493.72983 1488.487,512.90132 1512.0918,512.90132 C 1535.6966,512.90132 1554.8533,493.72983 1554.8533,470.12505 C 1554.8533,446.52028 1535.6966,427.36353 1512.0918,427.36353 z M 1512.0918,437.04788 C 1530.3521,437.04788 1545.1837,451.86475 1545.1837,470.12505 C 1545.1837,488.38536 1530.3521,503.21697 1512.0918,503.21697 C 1493.8315,503.21696 1479.0146,488.38536 1479.0146,470.12505 C 1479.0146,451.86475 1493.8315,437.04788 1512.0918,437.04788 z " style="opacity: 0.112971; fill: rgb(255, 215, 215); fill-opacity: 0.933054; fill-rule: nonzero; stroke: none; stroke-width: 135.5; stroke-linecap: round; stroke-linejoin: round; stroke-miterlimit: 4; stroke-opacity: 1;"/>
    </g>
    <g transform="matrix(0.657023, 0, 0, 0.657023, 5.42864, 319.69)" id="g5060">
      <path id="path5062" d="M 1512.0918,379.46055 C 1462.0487,379.46055 1421.4355,420.07367 1421.4356,470.1168 C 1421.4356,520.15993 1462.0486,560.80428 1512.0918,560.8043 C 1562.1349,560.8043 1602.748,520.15993 1602.748,470.1168 C 1602.748,420.07367 1562.1349,379.46055 1512.0918,379.46055 z M 1512.0918,399.9918 C 1550.8044,399.99179 1582.248,431.40419 1582.248,470.1168 C 1582.248,508.82942 1550.8044,540.27305 1512.0918,540.27305 C 1473.3792,540.27304 1441.9668,508.82941 1441.9668,470.1168 C 1441.9667,431.40419 1473.3792,399.9918 1512.0918,399.9918 z " style="opacity: 0.112971; fill: rgb(255, 215, 215); fill-opacity: 0.933054; fill-rule: nonzero; stroke: none; stroke-width: 135.5; stroke-linecap: round; stroke-linejoin: round; stroke-miterlimit: 4; stroke-opacity: 1;"/>
      <path style="opacity: 0.112971; fill: rgb(255, 215, 215); fill-opacity: 0.933054; fill-rule: nonzero; stroke: none; stroke-width: 135.5; stroke-linecap: round; stroke-linejoin: round; stroke-miterlimit: 4; stroke-opacity: 1;" d="M 1512.0918,427.36353 C 1488.487,427.36353 1469.3302,446.52028 1469.3303,470.12505 C 1469.3303,493.72983 1488.487,512.90132 1512.0918,512.90132 C 1535.6966,512.90132 1554.8533,493.72983 1554.8533,470.12505 C 1554.8533,446.52028 1535.6966,427.36353 1512.0918,427.36353 z M 1512.0918,437.04788 C 1530.3521,437.04788 1545.1837,451.86475 1545.1837,470.12505 C 1545.1837,488.38536 1530.3521,503.21697 1512.0918,503.21697 C 1493.8315,503.21696 1479.0146,488.38536 1479.0146,470.12505 C 1479.0146,451.86475 1493.8315,437.04788 1512.0918,437.04788 z " id="path5064"/>
    </g>
    <g id="g5066" transform="matrix(0.657023, -0.114244, 0, 0.657023, -305.279, 637.434)" style="opacity: 0.368201; fill: rgb(255, 255, 255); fill-opacity: 0.933054;">
      <path style="opacity: 0.112971; fill: rgb(255, 255, 255); fill-opacity: 0.933054; fill-rule: nonzero; stroke: none; stroke-width: 135.5; stroke-linecap: round; stroke-linejoin: round; stroke-miterlimit: 4; stroke-opacity: 1;" d="M 1512.0918,379.46055 C 1462.0487,379.46055 1421.4355,420.07367 1421.4356,470.1168 C 1421.4356,520.15993 1462.0486,560.80428 1512.0918,560.8043 C 1562.1349,560.8043 1602.748,520.15993 1602.748,470.1168 C 1602.748,420.07367 1562.1349,379.46055 1512.0918,379.46055 z M 1512.0918,399.9918 C 1550.8044,399.99179 1582.248,431.40419 1582.248,470.1168 C 1582.248,508.82942 1550.8044,540.27305 1512.0918,540.27305 C 1473.3792,540.27304 1441.9668,508.82941 1441.9668,470.1168 C 1441.9667,431.40419 1473.3792,399.9918 1512.0918,399.9918 z " id="path5068"/>
      <path id="path5070" d="M 1512.0918,427.36353 C 1488.487,427.36353 1469.3302,446.52028 1469.3303,470.12505 C 1469.3303,493.72983 1488.487,512.90132 1512.0918,512.90132 C 1535.6966,512.90132 1554.8533,493.72983 1554.8533,470.12505 C 1554.8533,446.52028 1535.6966,427.36353 1512.0918,427.36353 z M 1512.0918,437.04788 C 1530.3521,437.04788 1545.1837,451.86475 1545.1837,470.12505 C 1545.1837,488.38536 1530.3521,503.21697 1512.0918,503.21697 C 1493.8315,503.21696 1479.0146,488.38536 1479.0146,470.12505 C 1479.0146,451.86475 1493.8315,437.04788 1512.0918,437.04788 z " style="opacity: 0.112971; fill: rgb(255, 255, 255); fill-opacity: 0.933054; fill-rule: nonzero; stroke: none; stroke-width: 135.5; stroke-linecap: round; stroke-linejoin: round; stroke-miterlimit: 4; stroke-opacity: 1;"/>
    </g>
    <g style="opacity: 0.146444; fill: rgb(255, 255, 255); fill-opacity: 0.933054;" transform="matrix(0.827848, -0.254437, 0.474569, 0.868225, -594.19, 440.693)" id="g5072">
      <path id="path5074" d="M 1512.0918,379.46055 C 1462.0487,379.46055 1421.4355,420.07367 1421.4356,470.1168 C 1421.4356,520.15993 1462.0486,560.80428 1512.0918,560.8043 C 1562.1349,560.8043 1602.748,520.15993 1602.748,470.1168 C 1602.748,420.07367 1562.1349,379.46055 1512.0918,379.46055 z M 1512.0918,399.9918 C 1550.8044,399.99179 1582.248,431.40419 1582.248,470.1168 C 1582.248,508.82942 1550.8044,540.27305 1512.0918,540.27305 C 1473.3792,540.27304 1441.9668,508.82941 1441.9668,470.1168 C 1441.9667,431.40419 1473.3792,399.9918 1512.0918,399.9918 z " style="opacity: 0.112971; fill: rgb(255, 255, 255); fill-opacity: 0.933054; fill-rule: nonzero; stroke: none; stroke-width: 135.5; stroke-linecap: round; stroke-linejoin: round; stroke-miterlimit: 4; stroke-opacity: 1;"/>
      <path style="opacity: 0.112971; fill: rgb(255, 255, 255); fill-opacity: 0.933054; fill-rule: nonzero; stroke: none; stroke-width: 135.5; stroke-linecap: round; stroke-linejoin: round; stroke-miterlimit: 4; stroke-opacity: 1;" d="M 1512.0918,427.36353 C 1488.487,427.36353 1469.3302,446.52028 1469.3303,470.12505 C 1469.3303,493.72983 1488.487,512.90132 1512.0918,512.90132 C 1535.6966,512.90132 1554.8533,493.72983 1554.8533,470.12505 C 1554.8533,446.52028 1535.6966,427.36353 1512.0918,427.36353 z M 1512.0918,437.04788 C 1530.3521,437.04788 1545.1837,451.86475 1545.1837,470.12505 C 1545.1837,488.38536 1530.3521,503.21697 1512.0918,503.21697 C 1493.8315,503.21696 1479.0146,488.38536 1479.0146,470.12505 C 1479.0146,451.86475 1493.8315,437.04788 1512.0918,437.04788 z " id="path5076"/>
    </g>
    <g id="g5185" transform="matrix(0.646856, 0, 0, 0.646856, 30.4542, 216.906)"/>
    <path style="opacity: 1; fill: url(&quot;#linearGradient5203&quot;) rgb(0, 0, 0); fill-opacity: 1; fill-rule: nonzero; stroke: none; stroke-width: 135.5; stroke-linecap: round; stroke-linejoin: round; stroke-miterlimit: 4; stroke-dasharray: none; stroke-opacity: 1;" d="M 1557.9393,531.41321 C 1588.8507,542.90736 1619.5999,554.85185 1650.4172,566.60681 C 1617.6643,553.61316 1584.7611,541.01135 1551.6009,529.09535 C 1553.7137,529.86799 1555.8266,530.64059 1557.9393,531.41321 z M -24.920812,552.27394 C 106.27071,574.21568 234.36497,610.84942 361.40456,649.76587 C 522.5633,698.97235 683.31011,749.54192 847.49244,787.84395 C 642.08695,736.0049 441.88905,665.59379 237.81676,609.3662 C 148.89458,584.98294 58.752738,565.65524 -32.300102,551.04405 C -29.840332,551.454 -27.380562,551.86398 -24.920812,552.27394 z " id="path5193"/>
    <path style="opacity: 0.192469; fill: url(&quot;#linearGradient5256&quot;) rgb(0, 0, 0); fill-opacity: 1; fill-rule: nonzero; stroke: none; stroke-width: 135.5; stroke-linecap: round; stroke-linejoin: round; stroke-miterlimit: 4; stroke-dasharray: none; stroke-opacity: 1; filter: url(&quot;#filter5226&quot;);" d="M 2035.4795,719.34689 C 2083.658,718.13324 2067.444,702.45491 2060.1393,689.28337 C 2035.4311,656.03212 1966.1187,614.407 1910.5893,575.36006 C 1895.8715,565.35156 1881.5969,555.37924 1863.5275,544.79599 C 1898.7425,575.02188 1935.4764,605.48491 1978.7205,637.19647 C 2012.3035,662.9289 2045.4463,688.72872 2048.0921,708.49046 C 2047.7576,715.33722 2039.2695,721.58019 1984.1925,715.19091 C 1949.5529,711.22848 1899.7815,701.99724 1856.037,691.68338 C 1712.8514,659.58155 1593.1199,626.03351 1472.2566,593.60558 C 1330.2553,555.12524 1187.7291,515.97106 1027.1024,477.13419 C 954.74384,460.06203 867.9346,443.1323 809.12038,436.42262 C 765.45258,430.82188 738.91959,430.44096 722.59351,432.30905 C 658.95252,437.14993 662.84911,457.20126 662.3516,475.82063 C 666.5168,512.62447 709.51874,557.15176 726.39743,596.49122 C 732.86045,618.65606 724.57874,638.07882 678.97166,649.19039 C 634.91242,656.81031 540.73694,653.3284 399.93368,634.48224 C 318.4795,622.91852 217.31141,603.33802 125.1794,582.60263 C 121.76285,582.51434 121.30547,583.18951 130.84738,584.92476 C 238.91666,608.9206 357.93782,631.6087 445.49098,642.39776 C 519.5884,651.57491 580.615,656.42123 628.46468,657.95336 C 697.69871,659.93515 730.47243,652.79601 745.8585,642.14548 C 780.3822,623.47728 769.6211,595.31425 747.68872,565.0772 C 724.15012,526.71514 688.42293,485.85882 696.17095,453.76752 C 701.07314,443.01931 716.26698,434.11157 764.82186,433.22082 C 804.54988,434.80132 880.91807,445.68387 957.88766,462.73671 C 1057.6809,484.41266 1141.0678,507.74138 1227.1368,530.09651 C 1400.0692,575.96441 1560.4701,621.74632 1749.8554,667.94327 C 1807.1217,681.63784 1869.0173,695.99223 1929.6857,707.23153 C 1975.3095,714.97274 2015.1413,719.67085 2035.4795,719.34689 z M 127.99774,582.32698 C 126.79804,582.7062 127.09013,582.67498 127.99774,582.32698 z " id="path5205" transform="matrix(1.5137, 0, -7.02895, 1.5137, 3196.78, -261.72)"/>
  </g>
    <text x="250" y="50" font-family="sans-serif" font-size="40px" fill="lightyellow">Connected as 'foo.bar' to UEB Server 2 'Trompeta'</text>
</svg>
